<?xml version="1.0" encoding="UTF-8" standalone="no"?>
<svg
   xmlns:dc="http://purl.org/dc/elements/1.1/"
   xmlns:cc="http://creativecommons.org/ns#"
   xmlns:rdf="http://www.w3.org/1999/02/22-rdf-syntax-ns#"
   xmlns:svg="http://www.w3.org/2000/svg"
   xmlns="http://www.w3.org/2000/svg"
   xmlns:sodipodi="http://sodipodi.sourceforge.net/DTD/sodipodi-0.dtd"
   xmlns:inkscape="http://www.inkscape.org/namespaces/inkscape"
   width="58.978783"
   height="74.273178"
   viewBox="0 0 14.744694 18.568294"
   fill="none"
   data-reactroot=""
   version="1.1"
   id="svg917"
   sodipodi:docname="01n.svg"
   inkscape:version="1.0 (4035a4fb49, 2020-05-01)">
  <metadata
     id="metadata923">
    <rdf:RDF>
      <cc:Work
         rdf:about="">
        <dc:format>image/svg+xml</dc:format>
        <dc:type
           rdf:resource="http://purl.org/dc/dcmitype/StillImage" />
        <dc:title></dc:title>
      </cc:Work>
    </rdf:RDF>
  </metadata>
  <defs
     id="defs921" />
  <sodipodi:namedview
     inkscape:document-rotation="0"
     pagecolor="#ffffff"
     bordercolor="#666666"
     borderopacity="1"
     objecttolerance="10"
     gridtolerance="10"
     guidetolerance="10"
     inkscape:pageopacity="0"
     inkscape:pageshadow="2"
     inkscape:window-width="1692"
     inkscape:window-height="1322"
     id="namedview919"
     showgrid="false"
     inkscape:zoom="3.2880465"
     inkscape:cx="24.193975"
     inkscape:cy="34.739984"
     inkscape:window-x="1720"
     inkscape:window-y="65"
     inkscape:window-maximized="0"
     inkscape:current-layer="svg917"
     inkscape:snap-center="true"
     fit-margin-top="0"
     fit-margin-left="0"
     fit-margin-right="0"
     fit-margin-bottom="0" />
  <path
     id="path1048-2"
     style="fill:#5381ac;fill-opacity:1;stroke:#ebcb8b;stroke-width:1.9445;stroke-linejoin:round;stroke-miterlimit:10;stroke-dasharray:none;stroke-opacity:0"
     d="m 5.9946125,2.0403815 c -0.81936,0 -1.608444,0.1274318 -2.350097,0.3623048 a 9.9096803,9.3015393 0 0 1 4.082031,7.5229486 9.9096803,9.3015393 0 0 1 -3.866211,7.3715811 c 0.678502,0.193304 1.39376,0.298828 2.134277,0.298828 4.2955115,0 7.7778325,-3.482321 7.7778325,-7.7778311 0,-4.29555 -3.482321,-7.7778314 -7.7778325,-7.7778314 z" />
  <path
     d="m 3.3222247,0.97224995 c -0.8193599,0 -1.6084439,0.12743175 -2.35009736,0.36230475 A 9.9096804,9.3015394 0 0 1 5.0541584,8.8575036 9.9096804,9.3015394 0 0 1 1.1879476,16.229085 c 0.6785017,0.193304 1.3937599,0.298828 2.1342771,0.298828 4.2955111,0 7.7778323,-3.482321 7.7778323,-7.7778314 0,-4.29555 -3.4823212,-7.77783165 -7.7778323,-7.77783165 z"
     style="stroke:#81a1c1;stroke-width:1.9445;stroke-linejoin:round;stroke-miterlimit:10;stroke-dasharray:none;stroke-opacity:1"
     id="path1048" />
</svg>
