<?xml version="1.0" encoding="UTF-8" standalone="no"?>
<svg
   xmlns:dc="http://purl.org/dc/elements/1.1/"
   xmlns:cc="http://creativecommons.org/ns#"
   xmlns:rdf="http://www.w3.org/1999/02/22-rdf-syntax-ns#"
   xmlns:svg="http://www.w3.org/2000/svg"
   xmlns="http://www.w3.org/2000/svg"
   xmlns:sodipodi="http://sodipodi.sourceforge.net/DTD/sodipodi-0.dtd"
   xmlns:inkscape="http://www.inkscape.org/namespaces/inkscape"
   inkscape:version="1.0 (4035a4fb49, 2020-05-01)"
   sodipodi:docname="02d.svg"
   id="svg917"
   version="1.1"
   data-reactroot=""
   fill="none"
   viewBox="0 0 27.989341 21.120729"
   height="84.482918"
   width="111.95737">
  <metadata
     id="metadata923">
    <rdf:RDF>
      <cc:Work
         rdf:about="">
        <dc:format>image/svg+xml</dc:format>
        <dc:type
           rdf:resource="http://purl.org/dc/dcmitype/StillImage" />
        <dc:title></dc:title>
      </cc:Work>
    </rdf:RDF>
  </metadata>
  <defs
     id="defs921" />
  <sodipodi:namedview
     fit-margin-bottom="0"
     fit-margin-right="0"
     fit-margin-left="0"
     fit-margin-top="0"
     inkscape:snap-center="true"
     inkscape:current-layer="svg917"
     inkscape:window-maximized="0"
     inkscape:window-y="65"
     inkscape:window-x="1720"
     inkscape:cy="-14.580536"
     inkscape:cx="10.741397"
     inkscape:zoom="3.2880465"
     showgrid="false"
     id="namedview919"
     inkscape:window-height="1322"
     inkscape:window-width="1692"
     inkscape:pageshadow="2"
     inkscape:pageopacity="0"
     guidetolerance="10"
     gridtolerance="10"
     objecttolerance="10"
     borderopacity="1"
     bordercolor="#666666"
     pagecolor="#ffffff" />
  <path
     stroke-linejoin="round"
     stroke-linecap="round"
     stroke-miterlimit="10"
     stroke-width="0"
     stroke="#ebcb8b"
     fill="#d08770"
     d="m 19.956945,15.845642 c 2.826738,0 5.118305,-2.291884 5.118305,-5.119011 0,-2.8271532 -2.291567,-5.1190108 -5.118305,-5.1190108 -2.826764,0 -5.118306,2.2918576 -5.118306,5.1190108 0,2.827127 2.291542,5.119011 5.118306,5.119011 z"
     id="path1046" />
  <path
     style="stroke-width:1.32709;stroke-miterlimit:10;stroke-dasharray:none"
     stroke-linejoin="round"
     stroke-linecap="round"
     stroke-miterlimit="10"
     stroke-width="1.94445"
     stroke="#ebcb8b"
     fill="none"
     d="m 18.592063,14.670163 c 2.931433,0 5.307874,-2.376767 5.307874,-5.3086025 0,-2.9318626 -2.376441,-5.3086031 -5.307874,-5.3086031 -2.931458,0 -5.307873,2.3767405 -5.307873,5.3086031 0,2.9318355 2.376415,5.3086025 5.307873,5.3086025 z"
     id="path1048" />
  <path
     style="stroke:#ebcb8b;stroke-opacity:1"
     id="path907"
     d="m 18.425129,0.67878503 -0.0074,1.62843327"
     stroke="#eceff4"
     stroke-width="1.35757"
     stroke-miterlimit="10"
     stroke-linecap="round"
     stroke-linejoin="round" />
  <path
     inkscape:transform-center-y="-10.817424"
     inkscape:transform-center-x="0.70774692"
     stroke-linejoin="round"
     stroke-linecap="round"
     stroke-miterlimit="10"
     stroke-width="1.35757"
     stroke="#eceff4"
     d="m 18.425129,16.442787 -0.0074,1.628432"
     id="path907-3"
     style="stroke:#ebcb8b;stroke-opacity:1" />
  <path
     style="stroke:#ebcb8b;stroke-opacity:1"
     id="path907-3-6"
     d="m 25.682347,9.1872131 1.628221,0.00743"
     stroke="#eceff4"
     stroke-width="1.35755"
     stroke-miterlimit="10"
     stroke-linecap="round"
     stroke-linejoin="round"
     inkscape:transform-center-x="10.816007"
     inkscape:transform-center-y="0.70785346" />
  <path
     inkscape:transform-center-y="0.70785346"
     inkscape:transform-center-x="10.816008"
     stroke-linejoin="round"
     stroke-linecap="round"
     stroke-miterlimit="10"
     stroke-width="1.35755"
     stroke="#eceff4"
     d="m 9.9181186,9.1872131 1.6282204,0.00743"
     id="path907-3-6-7"
     style="stroke:#ebcb8b;stroke-opacity:1" />
  <path
     stroke-linejoin="round"
     stroke-linecap="round"
     stroke-miterlimit="10"
     stroke-width="1.3527"
     stroke="#eceff4"
     d="m 24.234218,3.6258633 -0.691657,0.690672"
     id="path907-5"
     style="stroke:#ebcb8b;stroke-opacity:1" />
  <path
     style="stroke:#ebcb8b;stroke-opacity:1"
     id="path907-3-3"
     d="M 13.683353,14.439106 13,15.120728"
     stroke="#eceff4"
     stroke-width="1.36498"
     stroke-miterlimit="10"
     stroke-linecap="round"
     stroke-linejoin="round"
     inkscape:transform-center-x="-3.615609"
     inkscape:transform-center-y="-5.4303096" />
  <path
     inkscape:transform-center-y="-3.616107"
     inkscape:transform-center-x="5.4295615"
     stroke-linejoin="round"
     stroke-linecap="round"
     stroke-miterlimit="10"
     stroke-width="1.36498"
     stroke="#eceff4"
     d="m 23.67747,14.314213 0.681527,0.683448"
     id="path907-3-6-5"
     style="stroke:#ebcb8b;stroke-opacity:1" />
  <path
     style="stroke:#ebcb8b;stroke-opacity:1"
     id="path907-3-6-7-6"
     d="m 12.873214,3.7601028 0.681528,0.6834468"
     stroke="#eceff4"
     stroke-width="1.36498"
     stroke-miterlimit="10"
     stroke-linecap="round"
     stroke-linejoin="round"
     inkscape:transform-center-x="5.429562"
     inkscape:transform-center-y="-3.6161074" />
  <path
     stroke-linejoin="round"
     stroke-linecap="round"
     stroke-miterlimit="10"
     stroke-width="0"
     stroke="#eceff4"
     fill="#d8dee9"
     d="m 19.1,12.820728 c -0.8,-2.099999 -2.900001,-3.6999997 -5.400001,-3.6999997 -3.199999,0 -5.7999989,2.5000007 -5.7999989,5.6999997 0,0.1 0,0.2 0,0.3 -0.5,-0.3 -1,-0.4 -1.6,-0.4 -1.8,-0.1 -3.3,1.4 -3.3,3.2 0,1.8 1.5,3.2 3.3,3.2 H 18.9 c 2.3,0 4.1,-2 4.1,-4.199999 0,-2.200001 -1.7,-3.900001 -3.9,-4.100001 z"
     id="path1703" />
  <path
     stroke-linejoin="round"
     stroke-linecap="round"
     stroke-miterlimit="10"
     stroke-width="2"
     stroke="#eceff4"
     fill="none"
     d="m 17.099999,10.820729 c -0.8,-2.100001 -2.9,-3.6999998 -5.4,-3.6999998 -3.199999,0 -5.7999991,2.4999991 -5.7999991,5.6999988 0,0.1 0,0.2 0,0.3 -0.5,-0.3 -1,-0.4 -1.6,-0.4 C 2.5,12.620728 1,14.120728 1,15.920728 c 0,1.8 1.5,3.2 3.2999999,3.2 H 16.899999 C 19.2,19.120728 21,17.120729 21,14.920728 c 0,-2.2 -1.7,-3.899999 -3.900001,-4.099999 z"
     id="path1705" />
</svg>
