<?xml version="1.0" encoding="UTF-8" standalone="no"?>
<svg
   xmlns:dc="http://purl.org/dc/elements/1.1/"
   xmlns:cc="http://creativecommons.org/ns#"
   xmlns:rdf="http://www.w3.org/1999/02/22-rdf-syntax-ns#"
   xmlns:svg="http://www.w3.org/2000/svg"
   xmlns="http://www.w3.org/2000/svg"
   xmlns:sodipodi="http://sodipodi.sourceforge.net/DTD/sodipodi-0.dtd"
   xmlns:inkscape="http://www.inkscape.org/namespaces/inkscape"
   inkscape:version="1.0 (4035a4fb49, 2020-05-01)"
   sodipodi:docname="cloud-drizzle(96x96)@1x.svg"
   id="svg917"
   version="1.1"
   data-reactroot=""
   fill="none"
   viewBox="0 0 24 24"
   height="96"
   width="96">
  <metadata
     id="metadata923">
    <rdf:RDF>
      <cc:Work
         rdf:about="">
        <dc:format>image/svg+xml</dc:format>
        <dc:type
           rdf:resource="http://purl.org/dc/dcmitype/StillImage" />
      </cc:Work>
    </rdf:RDF>
  </metadata>
  <defs
     id="defs921" />
  <sodipodi:namedview
     inkscape:current-layer="svg917"
     inkscape:window-maximized="0"
     inkscape:window-y="65"
     inkscape:window-x="1720"
     inkscape:cy="44.297554"
     inkscape:cx="60.393963"
     inkscape:zoom="2.3125"
     showgrid="false"
     id="namedview919"
     inkscape:window-height="1322"
     inkscape:window-width="1692"
     inkscape:pageshadow="2"
     inkscape:pageopacity="0"
     guidetolerance="10"
     gridtolerance="10"
     objecttolerance="10"
     borderopacity="1"
     bordercolor="#666666"
     pagecolor="#ffffff" />
  <path
     id="path903"
     transform="translate(2,2)"
     d="M18.1 5.7C17.3 3.6 15.2 2 12.7 2C9.5 2 6.9 4.5 6.9 7.7C6.9 7.8 6.9 7.9 6.9 8C6.4 7.7 5.9 7.6 5.3 7.6C3.5 7.5 2 9 2 10.8C2 12.6 3.5 14 5.3 14H17.9C20.2 14 22 12 22 9.8C22 7.6 20.3 5.9 18.1 5.7Z"
     fill="#d8dee9"
     stroke="#eceff4"
     stroke-width="0"
     stroke-miterlimit="10"
     stroke-linecap="round"
     stroke-linejoin="round" />
  <path
     id="path905"
     d="M18.1 5.7C17.3 3.6 15.2 2 12.7 2C9.5 2 6.9 4.5 6.9 7.7C6.9 7.8 6.9 7.9 6.9 8C6.4 7.7 5.9 7.6 5.3 7.6C3.5 7.5 2 9 2 10.8C2 12.6 3.5 14 5.3 14H17.9C20.2 14 22 12 22 9.8C22 7.6 20.3 5.9 18.1 5.7Z"
     fill="none"
     stroke="#eceff4"
     stroke-width="2"
     stroke-miterlimit="10"
     stroke-linecap="round"
     stroke-linejoin="round" />
  <path
     style="stroke:#88c0d0;stroke-opacity:1"
     id="path907"
     d="M6 17L5 18"
     stroke="#eceff4"
     stroke-width="2"
     stroke-miterlimit="10"
     stroke-linecap="round"
     stroke-linejoin="round" />
  <path
     style="stroke:#88c0d0;stroke-opacity:1"
     id="path909"
     d="M12 17L11 18"
     stroke="#eceff4"
     stroke-width="2"
     stroke-miterlimit="10"
     stroke-linecap="round"
     stroke-linejoin="round" />
  <path
     style="stroke:#88c0d0;stroke-opacity:1"
     id="path911"
     d="M9 21L8 22"
     stroke="#eceff4"
     stroke-width="2"
     stroke-miterlimit="10"
     stroke-linecap="round"
     stroke-linejoin="round" />
  <path
     style="stroke:#88c0d0;stroke-opacity:1"
     id="path913"
     d="M15 21L14 22"
     stroke="#eceff4"
     stroke-width="2"
     stroke-miterlimit="10"
     stroke-linecap="round"
     stroke-linejoin="round" />
  <path
     style="stroke:#88c0d0;stroke-opacity:1"
     id="path915"
     d="M19 17L18 18"
     stroke="#eceff4"
     stroke-width="2"
     stroke-miterlimit="10"
     stroke-linecap="round"
     stroke-linejoin="round" />
</svg>
