<?xml version="1.0" encoding="UTF-8" standalone="no"?>
<svg
   xmlns:dc="http://purl.org/dc/elements/1.1/"
   xmlns:cc="http://creativecommons.org/ns#"
   xmlns:rdf="http://www.w3.org/1999/02/22-rdf-syntax-ns#"
   xmlns:svg="http://www.w3.org/2000/svg"
   xmlns="http://www.w3.org/2000/svg"
   xmlns:sodipodi="http://sodipodi.sourceforge.net/DTD/sodipodi-0.dtd"
   xmlns:inkscape="http://www.inkscape.org/namespaces/inkscape"
   inkscape:version="1.0 (4035a4fb49, 2020-05-01)"
   sodipodi:docname="Autosport.svg"
   viewBox="0 0 201.36608 132.03998"
   height="132.03998"
   width="201.36609"
   id="svg2179"
   version="1.1">
  <metadata
     id="metadata2185">
    <rdf:RDF>
      <cc:Work
         rdf:about="">
        <dc:format>image/svg+xml</dc:format>
        <dc:type
           rdf:resource="http://purl.org/dc/dcmitype/StillImage" />
        <dc:title></dc:title>
      </cc:Work>
    </rdf:RDF>
  </metadata>
  <defs
     id="defs2183" />
  <sodipodi:namedview
     fit-margin-bottom="0"
     fit-margin-right="0"
     fit-margin-left="0"
     fit-margin-top="0"
     inkscape:current-layer="g2187"
     inkscape:window-maximized="0"
     inkscape:window-y="65"
     inkscape:window-x="1716"
     inkscape:cy="81.855938"
     inkscape:cx="96.404536"
     inkscape:zoom="5.6202052"
     showgrid="false"
     id="namedview2181"
     inkscape:window-height="1322"
     inkscape:window-width="1696"
     inkscape:pageshadow="2"
     inkscape:pageopacity="0"
     guidetolerance="10"
     gridtolerance="10"
     objecttolerance="10"
     borderopacity="1"
     bordercolor="#666666"
     pagecolor="#ffffff" />
  <g
     transform="translate(-68.173383,-292.64034)"
     id="g2187"
     inkscape:label="Image"
     inkscape:groupmode="layer">
    <path
       id="path2752"
       d="m 165.71343,422.1791 23.4343,-0.008 9.29738,-29.01319 34.13565,0.0362 10.6736,28.55994 22.71854,-0.091 -40.21158,-110.35357 -19.85859,-0.0229 z"
       style="fill:none;stroke:#eceff4;stroke-width:5;stroke-linecap:butt;stroke-linejoin:miter;stroke-miterlimit:4;stroke-dasharray:none;stroke-opacity:1" />
    <path
       id="path2754"
       d="m 215.83333,340.48543 -10.58385,32.94643 21.08503,0.0236 z"
       style="fill:none;stroke:#eceff4;stroke-width:5;stroke-linecap:butt;stroke-linejoin:miter;stroke-miterlimit:4;stroke-dasharray:none;stroke-opacity:1" />
    <path
       sodipodi:nodetypes="ccccc"
       id="path2756"
       d="m 107.03812,304.01803 c 3.01989,14.82386 0.21324,25.76276 -2.86725,36.51906 4.83362,2.56934 11.3887,1.56484 19.00883,-1.65074 0.72085,-11.6132 2.21491,-23.53193 5.88266,-36.30956 -9.4866,4.84096 -16.16987,3.98355 -22.02424,1.44124 z"
       style="fill:none;fill-opacity:1;stroke:#eceff4;stroke-width:5;stroke-linecap:butt;stroke-linejoin:round;stroke-miterlimit:4;stroke-dasharray:none;stroke-opacity:1" />
    <path
       sodipodi:nodetypes="ccccc"
       id="path2758"
       d="m 112.15107,373.11505 c 6.07148,-9.9059 9.26747,-21.61693 11.02863,-34.2287 l 19.27441,-5.21278 c -2.33126,11.91776 -5.04509,23.05784 -8.10773,33.48888 z"
       style="fill:none;fill-opacity:1;stroke:#eceff4;stroke-width:5;stroke-linecap:butt;stroke-linejoin:round;stroke-miterlimit:4;stroke-dasharray:none;stroke-opacity:1" />
    <path
       sodipodi:nodetypes="ccccc"
       id="path2760"
       d="m 134.34638,367.16245 -13.59849,33.99328 c 7.85452,-4.09217 14.42512,-2.78048 21.121,-1.99612 l 11.92145,-32.04639 c -4.05098,-1.67168 -5.97398,-4.82144 -19.44396,0.0492 z"
       style="fill:none;fill-opacity:1;stroke:#eceff4;stroke-width:5;stroke-linecap:butt;stroke-linejoin:round;stroke-miterlimit:4;stroke-dasharray:none;stroke-opacity:1" />
    <path
       sodipodi:nodetypes="ccccc"
       id="path2762"
       d="m 87.211276,375.58926 c 9.850753,3.56249 17.462354,0.73557 24.939794,-2.47421 -8.91705,11.22407 -9.63366,20.40844 -14.073824,31.63252 l -27.403917,0.44296 c 1.841729,-9.52787 9.558885,-19.59867 16.537947,-29.60127 z"
       style="fill:none;fill-opacity:1;stroke:#eceff4;stroke-width:5;stroke-linecap:butt;stroke-linejoin:round;stroke-miterlimit:4;stroke-dasharray:none;stroke-opacity:1" />
    <path
       sodipodi:nodetypes="ccccc"
       id="path2764"
       d="m 150.23824,295.14034 22.56932,0.42402 -8.02268,37.38452 c -6.13263,-2.78907 -13.61512,-2.45759 -22.33077,0.72469 z"
       style="fill:none;fill-opacity:1;stroke:#eceff4;stroke-width:5;stroke-linecap:butt;stroke-linejoin:round;stroke-miterlimit:4;stroke-dasharray:none;stroke-opacity:1" />
    <path
       id="path2766"
       d="m 155.32227,406.7083 10.90751,9.23792 12.08802,-32.99636 -9.85123,-7.76632 z"
       style="fill:none;fill-opacity:1;stroke:#eceff4;stroke-width:5;stroke-linecap:butt;stroke-linejoin:round;stroke-miterlimit:4;stroke-dasharray:none;stroke-opacity:1" />
    <path
       sodipodi:nodetypes="ccccc"
       id="path2768"
       d="m 191.01893,350.04223 -9.87913,-7.66174 8.37635,-36.91278 c 5.48068,7.04469 10.30913,9.59902 14.76908,9.61635 z"
       style="fill:none;fill-opacity:1;stroke:#eceff4;stroke-width:5;stroke-linecap:butt;stroke-linejoin:round;stroke-miterlimit:4;stroke-dasharray:none;stroke-opacity:1" />
    <path
       sodipodi:nodetypes="ccccc"
       id="path2770"
       d="m 164.78488,332.94888 -10.99454,34.16434 c 5.24027,-2.92279 10.15838,-0.6524 14.67623,8.07032 l 12.67323,-32.80305 c -3.29048,-5.98532 -7.78278,-10.3905 -16.35492,-9.43161 z"
       style="fill:none;fill-opacity:1;stroke:#eceff4;stroke-width:5;stroke-linecap:butt;stroke-linejoin:round;stroke-miterlimit:4;stroke-dasharray:none;stroke-opacity:1" />
  </g>
</svg>
