<?xml version="1.0" encoding="UTF-8" standalone="no"?>
<svg
   xmlns:dc="http://purl.org/dc/elements/1.1/"
   xmlns:cc="http://creativecommons.org/ns#"
   xmlns:rdf="http://www.w3.org/1999/02/22-rdf-syntax-ns#"
   xmlns:svg="http://www.w3.org/2000/svg"
   xmlns="http://www.w3.org/2000/svg"
   xmlns:sodipodi="http://sodipodi.sourceforge.net/DTD/sodipodi-0.dtd"
   xmlns:inkscape="http://www.inkscape.org/namespaces/inkscape"
   version="1.1"
   id="svg8084"
   width="525.46985"
   height="526.93707"
   viewBox="0 0 525.46985 526.93707"
   sodipodi:docname="slack.svg"
   inkscape:version="1.0 (4035a4fb49, 2020-05-01)">
  <metadata
     id="metadata8090">
    <rdf:RDF>
      <cc:Work
         rdf:about="">
        <dc:format>image/svg+xml</dc:format>
        <dc:type
           rdf:resource="http://purl.org/dc/dcmitype/StillImage" />
        <dc:title></dc:title>
      </cc:Work>
    </rdf:RDF>
  </metadata>
  <defs
     id="defs8088" />
  <sodipodi:namedview
     fit-margin-bottom="0"
     fit-margin-right="0"
     fit-margin-left="0"
     fit-margin-top="0"
     inkscape:document-rotation="0"
     pagecolor="#ffffff"
     bordercolor="#666666"
     borderopacity="1"
     objecttolerance="10"
     gridtolerance="10"
     guidetolerance="10"
     inkscape:pageopacity="0"
     inkscape:pageshadow="2"
     inkscape:window-width="1696"
     inkscape:window-height="1322"
     id="namedview8086"
     showgrid="false"
     inkscape:zoom="0.29175"
     inkscape:cx="876.36256"
     inkscape:cy="242.70629"
     inkscape:window-x="1716"
     inkscape:window-y="65"
     inkscape:window-maximized="0"
     inkscape:current-layer="g8092" />
  <g
     transform="translate(-32.144275,-31.815309)"
     inkscape:groupmode="layer"
     inkscape:label="Image"
     id="g8092">
    <path
       style="fill:none;stroke:#eceff4;stroke-width:25;stroke-linecap:butt;stroke-linejoin:miter;stroke-miterlimit:4;stroke-dasharray:none;stroke-opacity:1"
       d="m 445.0089,270.47702 0.023,-56.02969 c -0.0613,-20.04239 22.19838,-44.41767 49.49557,-44.7578 26.71719,0.49335 50.43281,18.15129 50.58658,49.6367 -0.0836,34.93823 -24.81564,50.43572 -47.49197,51.06651 z"
       id="path8657"
       sodipodi:nodetypes="cccccc" />
    <path
       style="fill:none;stroke:#eceff4;stroke-width:25;stroke-linecap:butt;stroke-linejoin:miter;stroke-miterlimit:4;stroke-dasharray:none;stroke-opacity:1"
       d="m 307.59113,99.946698 -0.006,137.105762 c 0.002,18.29123 19.0411,44.96779 49.76585,45.23208 31.55224,0.2714 50.43665,-25.87009 50.4291,-45.19728 l -0.0185,-138.088714 c -0.1958,-23.154797 -24.94717,-43.826847 -49.87616,-43.683238 -24.91971,0.143555 -50.63452,22.311338 -50.29429,44.63139 z"
       id="path8659"
       sodipodi:nodetypes="ccsccsc" />
    <path
       sodipodi:nodetypes="cccccc"
       id="path8657-9"
       d="m 319.12797,446.14718 56.02969,0.023 c 20.04239,-0.0613 44.41767,22.19838 44.7578,49.49557 -0.49335,26.71719 -18.15129,50.43281 -49.6367,50.58658 -34.93823,-0.0836 -50.43572,-24.81564 -51.06651,-47.49197 z"
       style="fill:none;stroke:#eceff4;stroke-width:25;stroke-linecap:butt;stroke-linejoin:miter;stroke-miterlimit:4;stroke-dasharray:none;stroke-opacity:1" />
    <path
       sodipodi:nodetypes="ccsccsc"
       id="path8659-3"
       d="m 484.45802,310.87858 -137.10576,-0.006 c -18.29123,0.002 -44.96779,19.0411 -45.23208,49.76585 -0.2714,31.55224 25.87009,50.43665 45.19728,50.4291 l 138.08871,-0.0185 c 23.15479,-0.1958 43.82684,-24.94717 43.68324,-49.87616 -0.14356,-24.91971 -22.31134,-50.63452 -44.63139,-50.29429 z"
       style="fill:none;stroke:#eceff4;stroke-width:25;stroke-linecap:butt;stroke-linejoin:miter;stroke-miterlimit:4;stroke-dasharray:none;stroke-opacity:1" />
    <path
       style="fill:none;stroke:#eceff4;stroke-width:25;stroke-linecap:butt;stroke-linejoin:miter;stroke-miterlimit:4;stroke-dasharray:none;stroke-opacity:1"
       d="m 234.14138,184.78855 -137.105758,-0.006 c -18.29123,0.002 -44.96779,19.0411 -45.23208,49.76585 -0.2714,31.55224 25.87009,50.43665 45.19728,50.4291 L 235.08953,284.959 c 23.15479,-0.1958 43.82684,-24.94717 43.68324,-49.87616 -0.14356,-24.91971 -22.31134,-50.63452 -44.63139,-50.29429 z"
       id="path8659-3-6"
       sodipodi:nodetypes="ccsccsc" />
    <path
       sodipodi:nodetypes="ccsccsc"
       id="path8659-0"
       d="m 173.65218,356.91152 -0.006,137.10576 c 0.002,18.29123 19.0411,44.96779 49.76585,45.23208 31.55224,0.2714 50.43665,-25.87009 50.4291,-45.19728 l -0.0185,-138.08871 c -0.1958,-23.15479 -24.94717,-43.82684 -49.87616,-43.68324 -24.91971,0.14356 -50.63452,22.31134 -50.29429,44.63139 z"
       style="fill:none;stroke:#eceff4;stroke-width:25;stroke-linecap:butt;stroke-linejoin:miter;stroke-miterlimit:4;stroke-dasharray:none;stroke-opacity:1" />
    <path
       style="fill:none;stroke:#eceff4;stroke-width:25;stroke-linecap:butt;stroke-linejoin:miter;stroke-miterlimit:4;stroke-dasharray:none;stroke-opacity:1"
       d="m 144.7495,320.10253 -0.023,56.02969 c 0.0613,20.04239 -22.19838,44.41767 -49.495572,44.7578 -26.71719,-0.49335 -50.43281,-18.15129 -50.58658,-49.6367 0.0836,-34.93823 24.81564,-50.43572 47.49197,-51.06651 z"
       id="path8657-9-6"
       sodipodi:nodetypes="cccccc" />
    <path
       style="fill:none;stroke:#eceff4;stroke-width:25;stroke-linecap:butt;stroke-linejoin:miter;stroke-miterlimit:4;stroke-dasharray:none;stroke-opacity:1"
       d="m 270.45809,144.42053 -56.02969,-0.023 c -20.04238,0.0613 -44.41767,-22.19838 -44.7578,-49.495566 0.49335,-26.717192 18.15129,-50.432812 49.6367,-50.586582 34.93823,0.0836 50.43572,24.81564 51.06651,47.491971 z"
       id="path8657-9-2"
       sodipodi:nodetypes="cccccc" />
  </g>
</svg>
