<?xml version="1.0" encoding="UTF-8" standalone="no"?>
<svg
   xmlns:dc="http://purl.org/dc/elements/1.1/"
   xmlns:cc="http://creativecommons.org/ns#"
   xmlns:rdf="http://www.w3.org/1999/02/22-rdf-syntax-ns#"
   xmlns:svg="http://www.w3.org/2000/svg"
   xmlns="http://www.w3.org/2000/svg"
   xmlns:sodipodi="http://sodipodi.sourceforge.net/DTD/sodipodi-0.dtd"
   xmlns:inkscape="http://www.inkscape.org/namespaces/inkscape"
   version="1.1"
   id="svg2338"
   width="304.6748"
   height="184.35223"
   viewBox="0 0 304.6748 184.35223"
   sodipodi:docname="AWS.svg"
   inkscape:version="1.0.2 (e86c870879, 2021-01-15)">
  <metadata
     id="metadata2344">
    <rdf:RDF>
      <cc:Work
         rdf:about="">
        <dc:format>image/svg+xml</dc:format>
        <dc:type
           rdf:resource="http://purl.org/dc/dcmitype/StillImage" />
        <dc:title></dc:title>
      </cc:Work>
    </rdf:RDF>
  </metadata>
  <defs
     id="defs2342" />
  <sodipodi:namedview
     pagecolor="#ffffff"
     bordercolor="#666666"
     borderopacity="1"
     objecttolerance="10"
     gridtolerance="10"
     guidetolerance="10"
     inkscape:pageopacity="0"
     inkscape:pageshadow="2"
     inkscape:window-width="1693"
     inkscape:window-height="1361"
     id="namedview2340"
     showgrid="false"
     fit-margin-top="0"
     fit-margin-left="0"
     fit-margin-right="0"
     fit-margin-bottom="0"
     inkscape:zoom="2.7506454"
     inkscape:cx="142.45158"
     inkscape:cy="101.48609"
     inkscape:window-x="1725"
     inkscape:window-y="57"
     inkscape:window-maximized="0"
     inkscape:current-layer="g2346" />
  <g
     inkscape:groupmode="layer"
     inkscape:label="Image"
     id="g2346"
     transform="translate(2.1554406,2.5509993)">
    <path
       style="fill:none;stroke:#eceff4;stroke-width:5;stroke-linecap:butt;stroke-linejoin:miter;stroke-miterlimit:4;stroke-dasharray:none;stroke-opacity:1"
       d="m 6.6662378,118.56566 c 90.1934212,51.74616 188.4929622,46.0601 259.9018222,15.47752 4.50453,-1.92918 9.10645,4.58535 5.80698,6.93537 -59.4145,42.31746 -169.26435,65.83333 -270.0579562,-17.81841 -3.7241712,-3.09081 -1.94356078,-8.20476 4.349154,-4.59448 z"
       id="path2911"
       sodipodi:nodetypes="sssss" />
    <path
       style="fill:none;stroke:#eceff4;stroke-width:5;stroke-linecap:butt;stroke-linejoin:miter;stroke-miterlimit:4;stroke-dasharray:none;stroke-opacity:1"
       d="m 245.69462,119.81863 c -3.83658,2.36273 -4.46553,5.3656 1.81931,5.13573 14.04986,-0.51388 30.5726,-3.78162 36.36723,0.95502 5.17815,4.23272 -3.30872,23.8631 -7.69491,36.53409 -1.86366,5.38383 0.95851,5.42237 4.92281,2.63487 9.29665,-6.53695 22.80814,-41.69312 17.73362,-49.49143 -5.23769,-4.79186 -33.7227,-7.73121 -53.14806,4.23172 z"
       id="path2913"
       sodipodi:nodetypes="ssssscs" />
    <path
       style="fill:none;stroke:#eceff4;stroke-width:5;stroke-linecap:butt;stroke-linejoin:round;stroke-miterlimit:4;stroke-dasharray:none;stroke-opacity:1"
       d="m 19.033502,9.1742406 -0.04101,9.0359854 c -0.04221,1.308662 0.478876,2.198576 2.899266,1.601547 8.488538,-3.051151 16.628347,-6.454128 26.095067,-6.404207 14.844786,0.247705 20.053309,8.261471 20.091029,12.583865 l 0.263477,15.606333 c -23.3178,-7.223942 -55.170396,-3.235521 -55.442735,23.652447 0.07226,13.270866 7.510791,27.496907 27.289971,27.752495 19.155377,-0.07449 23.348134,-8.917834 29.381702,-14.032301 l 6.720828,10.760356 c 0.833147,1.243266 1.740799,2.863251 4.661525,1.103389 l 7.635261,-5.525815 C 89.767578,84.38154 90.865634,83.39759 88.889805,80.261588 86.95093,77.692044 84.537342,75.421593 84.34765,71.604616 L 83.801433,23.79049 C 83.956696,13.351193 71.63924,0.62715341 50.021133,0.55088373 35.019767,0.60613536 19.068675,6.4674932 19.033502,9.1742406 Z"
       id="path2915"
       sodipodi:nodetypes="ccccccccccccccccc" />
    <path
       style="fill:none;stroke:#eceff4;stroke-width:5;stroke-linecap:butt;stroke-linejoin:miter;stroke-miterlimit:4;stroke-dasharray:none;stroke-opacity:1"
       d="M 66.2831,52.20645 C 66.271878,71.394539 53.708255,80.30112 42.793936,80.07905 30.474092,79.947492 27.929848,73.681574 27.65194,65.418146 27.75773,52.232932 41.591341,49.894159 47.670139,49.751105 54.817107,49.768565 63.473905,50.97986 66.2831,52.20645 Z"
       id="path2917"
       sodipodi:nodetypes="ccccc" />
    <path
       style="fill:none;stroke:#eceff4;stroke-width:5;stroke-linecap:butt;stroke-linejoin:round;stroke-miterlimit:4;stroke-dasharray:none;stroke-opacity:1"
       d="M 94.026981,6.6033948 118.08031,85.705334 c 1.06885,2.829288 3.1942,5.528967 5.66672,5.547515 l 10.09633,-0.223266 c 2.58516,-0.0564 4.20346,-2.02006 4.77477,-4.759514 L 154.0002,22.13559 169.33864,86.270341 c 0.62343,2.410149 2.30066,4.711206 4.14124,4.750529 l 11.63035,-0.160558 c 1.74406,-0.03988 3.52283,-0.735566 4.37398,-3.84385 L 214.33644,6.8613961 C 215.2451,3.35499 214.10272,2.4210477 211.71086,2.433232 l -9.74427,0.079366 c -1.87113,0.061772 -3.59321,-0.5328604 -5.05558,4.2181706 L 179.82033,73.412498 163.67994,5.5691177 C 162.96725,3.2575532 160.84266,2.5276351 158.96806,2.5106532 L 148.43472,2.491812 c -1.66197,0.00768 -3.00546,0.6928217 -3.87887,3.7385318 L 128.79955,73.160791 111.09879,5.3440097 c -0.52606,-2.0486063 -1.44331,-2.8352068 -4.39861,-2.8895108 l -9.997329,0.034734 c -2.395621,-0.042937 -3.442578,1.4504975 -2.67587,4.1141619 z"
       id="path2919"
       sodipodi:nodetypes="cccccccccccccccccccccccc" />
    <path
       style="fill:none;stroke:#eceff4;stroke-width:5;stroke-linecap:butt;stroke-linejoin:miter;stroke-miterlimit:4;stroke-dasharray:none;stroke-opacity:1"
       d="m 221.90654,75.921352 0.0672,7.248239 c 0.0669,7.216672 22.26779,10.179787 28.21231,9.870068 21.10701,-1.099707 36.04445,-7.307653 36.66497,-26.831355 0.50299,-15.825793 -11.89415,-21.792776 -31.48445,-27.601181 -11.37159,-3.371606 -17.24024,-7.069817 -16.76707,-13.848883 0.74674,-10.698505 13.3352,-12.119073 18.53923,-12.063814 10.76091,0.114264 15.48611,3.746583 22.42737,5.65526 2.16478,0.595262 2.47298,-1.090788 2.4563,-2.618781 L 281.9509,9.1825729 C 282.06468,3.0291757 264.09991,-0.01349974 255.10151,-0.05053528 235.02238,-0.13317677 223.85048,10.763978 222.97525,25.250905 c -0.75818,12.549434 6.23045,21.798587 23.75447,26.6071 11.24114,3.084519 24.554,5.162881 23.9832,15.257867 -0.59498,10.522623 -9.1813,12.78144 -20.66088,12.875763 -9.4136,0.07735 -17.07164,-1.636063 -23.35307,-5.1335 -1.73506,-0.966063 -4.82478,-2.42631 -4.79243,1.063217 z"
       id="path2921"
       sodipodi:nodetypes="ssssssssscsssssss" />
  </g>
</svg>
