<?xml version="1.0" encoding="UTF-8" standalone="no"?>
<svg
   xmlns:dc="http://purl.org/dc/elements/1.1/"
   xmlns:cc="http://creativecommons.org/ns#"
   xmlns:rdf="http://www.w3.org/1999/02/22-rdf-syntax-ns#"
   xmlns:svg="http://www.w3.org/2000/svg"
   xmlns="http://www.w3.org/2000/svg"
   xmlns:sodipodi="http://sodipodi.sourceforge.net/DTD/sodipodi-0.dtd"
   xmlns:inkscape="http://www.inkscape.org/namespaces/inkscape"
   version="1.1"
   id="Layer_1"
   x="0px"
   y="0px"
   width="70px"
   height="70px"
   viewBox="0 0 70 70"
   enable-background="new 0 0 70 70"
   xml:space="preserve"
   sodipodi:docname="aws_console.svg"
   inkscape:version="1.0.2 (e86c870879, 2021-01-15)"><metadata
   id="metadata1662"><rdf:RDF><cc:Work
       rdf:about=""><dc:format>image/svg+xml</dc:format><dc:type
         rdf:resource="http://purl.org/dc/dcmitype/StillImage" /><dc:title></dc:title></cc:Work></rdf:RDF></metadata><defs
   id="defs1660" /><sodipodi:namedview
   pagecolor="#ffffff"
   bordercolor="#666666"
   borderopacity="1"
   objecttolerance="10"
   gridtolerance="10"
   guidetolerance="10"
   inkscape:pageopacity="0"
   inkscape:pageshadow="2"
   inkscape:window-width="1693"
   inkscape:window-height="1361"
   id="namedview1658"
   showgrid="false"
   inkscape:zoom="10.214286"
   inkscape:cx="18.797203"
   inkscape:cy="35"
   inkscape:window-x="1725"
   inkscape:window-y="57"
   inkscape:window-maximized="0"
   inkscape:current-layer="g1655" />
<g
   id="g1655">
	<path
   fill="#FF9900"
   d="M58.944,49.454H11.053c-2.379,0-4.313,1.932-4.313,4.316v3.479c0,2.387,1.934,4.319,4.313,4.319h47.892   c2.386,0,4.315-1.933,4.315-4.319v-3.479C63.26,51.386,61.33,49.454,58.944,49.454z M57.035,57.238H39.129   c-0.953,0-1.728-0.772-1.728-1.729c0-0.952,0.774-1.726,1.728-1.726h17.906c0.954,0,1.728,0.773,1.728,1.726   C58.763,56.466,57.989,57.238,57.035,57.238z"
   id="path1651"
   style="fill:#eceff4;fill-opacity:1" />
	<path
   fill="#FF9900"
   d="M13.313,45.937h43.317c3.603,0,6.535-2.933,6.535-6.537V14.974c0-3.608-2.933-6.542-6.535-6.542H13.313   c-3.604,0-6.534,2.934-6.534,6.542v24.426C6.779,43.004,9.71,45.937,13.313,45.937z M11.35,14.974c0-1.087,0.881-1.971,1.964-1.971   h43.317c1.083,0,1.964,0.884,1.964,1.971v24.426c0,1.084-0.881,1.967-1.964,1.967H13.313c-1.083,0-1.964-0.883-1.964-1.967V14.974z   "
   id="path1653"
   style="fill:#eceff4;fill-opacity:1" />
</g>
</svg>
