<?xml version="1.0" encoding="UTF-8" standalone="no"?>
<svg
   xmlns:dc="http://purl.org/dc/elements/1.1/"
   xmlns:cc="http://creativecommons.org/ns#"
   xmlns:rdf="http://www.w3.org/1999/02/22-rdf-syntax-ns#"
   xmlns:svg="http://www.w3.org/2000/svg"
   xmlns="http://www.w3.org/2000/svg"
   xmlns:sodipodi="http://sodipodi.sourceforge.net/DTD/sodipodi-0.dtd"
   xmlns:inkscape="http://www.inkscape.org/namespaces/inkscape"
   sodipodi:docname="disney.svg"
   inkscape:version="1.0 (4035a4fb49, 2020-05-01)"
   id="svg4053"
   version="1.1"
   viewBox="0 0 165.26396 86.59185"
   height="86.59185mm"
   width="165.26396mm">
  <defs
     id="defs4047" />
  <sodipodi:namedview
     inkscape:window-maximized="1"
     inkscape:window-y="63"
     inkscape:window-x="1723"
     inkscape:window-height="1337"
     inkscape:window-width="1702"
     showgrid="false"
     inkscape:document-rotation="0"
     inkscape:current-layer="layer1"
     inkscape:document-units="mm"
     inkscape:cy="242.3048"
     inkscape:cx="245.59172"
     inkscape:zoom="1.4"
     inkscape:pageshadow="2"
     inkscape:pageopacity="0.0"
     borderopacity="1.0"
     bordercolor="#666666"
     pagecolor="#ffffff"
     id="base" />
  <metadata
     id="metadata4050">
    <rdf:RDF>
      <cc:Work
         rdf:about="">
        <dc:format>image/svg+xml</dc:format>
        <dc:type
           rdf:resource="http://purl.org/dc/dcmitype/StillImage" />
        <dc:title></dc:title>
      </cc:Work>
    </rdf:RDF>
  </metadata>
  <g
     transform="translate(-0.5533941,-0.52405024)"
     id="layer1"
     inkscape:groupmode="layer"
     inkscape:label="Layer 1">
    <path
       sodipodi:nodetypes="cccccccsssccccccscscccccsccc"
       id="path4644"
       d="m 45.67711,23.472955 c 2.406986,-0.006 4.770937,3.25064 5.244552,17.18077 31.965105,-0.63638 38.258054,13.81273 25.508818,20.36452 -1.579645,0.73103 -7.112604,-0.43399 -7.137806,-1.86443 -0.171802,-0.98085 5.705002,-2.79877 5.3347,-4.37547 -1.543304,-4.25889 -17.160307,-5.05648 -24.162558,-5.07832 l 0.408353,23.06122 c 23.751773,3.47236 38.017319,-3.47977 42.561333,-11.72397 C 101.28706,46.790395 83.514729,27.769015 60.527957,17.884745 50.14081,13.418285 38.000117,9.9076352 27.860511,8.9605952 16.568882,7.9059552 7.53253,9.7076852 6.982009,10.701645 c 1.617887,0.5998 5.179515,1.14733 4.857603,2.35 -0.63354,1.95453 -5.69841,1.4862 -6.653211,1.42692 -1.727567,-0.0934 -3.238495,-1.12166 -3.310092,-3.03099 0.03439,-1.5271698 -0.338169,-4.0552998 4.361139,-6.4342598 3.339676,-1.33 9.514887,-3.1317 19.433303,-3.16635 23.903187,0.25409 50.669862,8.9780998 68.49142,28.5095998 6.023499,6.60145 10.775189,11.80571 11.423829,22.35673 0.23446,13.64228 -7.586103,22.16081 -20.383289,26.66456 -8.658123,3.04708 -27.361775,4.38845 -34.458264,0.55974 l 0.01938,3.40122 c 0.01813,1.17592 -1.09398,2.34888 -4.283804,2.45417 -5.787278,-0.0573 -4.811214,-5.83517 -5.163337,-9.02928 -7.17716,-2.33156 -20.142097,-11.82896 -24.088833,-20.23691 -0.531926,-1.4382 -0.29578,-1.85122 0.08008,-2.59064 3.967994,-7.80618 19.94486,-11.22659 24.463737,-12.27237 0.670223,-4.74518 0.189568,-18.86325 3.905437,-18.19083 z"
       style="opacity:1;fill:none;stroke:#eceff4;stroke-width:2.64583;stroke-linecap:butt;stroke-linejoin:round;stroke-miterlimit:4;stroke-dasharray:none;stroke-opacity:1" />
    <path
       sodipodi:nodetypes="ccccccc"
       id="path4646"
       d="m 41.700647,50.033845 c 0.240954,6.8107 -0.183531,13.43157 -0.703858,20.02511 -4.883941,-1.21408 -9.288391,-3.67773 -12.290546,-5.97383 -2.974939,-2.21715 -5.787513,-4.56398 -7.619227,-6.63815 -1.54494,-1.97222 -0.395705,-2.90256 -0.31376,-3.05851 0.999093,-1.32411 4.168147,-2.3083 7.570824,-2.94741 4.104127,-0.69478 8.940645,-1.13234 13.356567,-1.40721 z"
       style="opacity:1;fill:none;stroke:#eceff4;stroke-width:2.64583;stroke-linecap:butt;stroke-linejoin:miter;stroke-miterlimit:4;stroke-dasharray:none;stroke-opacity:1" />
    <path
       sodipodi:nodetypes="ccccccccccccccccccccc"
       id="path4648"
       d="m 118.50607,40.372765 18.30539,0.088 c -0.22998,-5.88434 -1.6118,-15.21377 -2.36516,-18.27547 -0.17179,-0.91612 -0.0607,-2.14131 1.0889,-2.10935 l 4.2497,0.006 c 0.61671,0.1228 1.47595,-0.43564 1.81585,1.51249 1.0395,6.15598 1.97034,11.53711 2.18592,18.92472 l 18.84806,-0.073 c 1.26798,0.0219 1.78398,-0.10131 1.80238,1.54389 l 0.0571,4.20551 c -0.0213,0.83898 -0.0913,1.56783 -1.4831,1.46173 l -18.93481,-0.0409 c 0.21852,5.89082 -0.0517,11.96534 -0.54007,17.99973 -0.17001,1.64233 -0.0962,1.87256 -1.67192,1.88496 l -3.99105,0.0545 c -0.78302,-0.0324 -1.77255,0.27388 -1.52433,-1.87736 0.61615,-3.4144 0.75524,-12.00684 0.69827,-18.20305 l -18.6523,0.0398 c -0.99362,0.0559 -1.25375,-0.4952 -1.34764,-1.18393 l 0.0378,-4.27252 c -0.12435,-1.38928 0.51746,-1.71854 1.42101,-1.68566 z"
       style="fill:none;stroke:#eceff4;stroke-width:2.64583;stroke-linecap:butt;stroke-linejoin:miter;stroke-miterlimit:4;stroke-dasharray:none;stroke-opacity:1" />
  </g>
</svg>
