<?xml version="1.0" encoding="UTF-8" standalone="no"?>
<svg
   xmlns:dc="http://purl.org/dc/elements/1.1/"
   xmlns:cc="http://creativecommons.org/ns#"
   xmlns:rdf="http://www.w3.org/1999/02/22-rdf-syntax-ns#"
   xmlns:svg="http://www.w3.org/2000/svg"
   xmlns="http://www.w3.org/2000/svg"
   xmlns:sodipodi="http://sodipodi.sourceforge.net/DTD/sodipodi-0.dtd"
   xmlns:inkscape="http://www.inkscape.org/namespaces/inkscape"
   inkscape:version="1.0 (4035a4fb49, 2020-05-01)"
   sodipodi:docname="FE.svg"
   viewBox="0 0 832.29437 552.21973"
   height="552.21973"
   width="832.29437"
   id="svg1526"
   version="1.1">
  <metadata
     id="metadata1532">
    <rdf:RDF>
      <cc:Work
         rdf:about="">
        <dc:format>image/svg+xml</dc:format>
        <dc:type
           rdf:resource="http://purl.org/dc/dcmitype/StillImage" />
        <dc:title></dc:title>
      </cc:Work>
    </rdf:RDF>
  </metadata>
  <defs
     id="defs1530" />
  <sodipodi:namedview
     inkscape:current-layer="g1534"
     inkscape:window-maximized="0"
     inkscape:window-y="65"
     inkscape:window-x="1716"
     inkscape:cy="-121.77887"
     inkscape:cx="1055.3366"
     inkscape:zoom="0.42809598"
     fit-margin-bottom="0"
     fit-margin-right="0"
     fit-margin-left="0"
     fit-margin-top="0"
     showgrid="false"
     id="namedview1528"
     inkscape:window-height="1322"
     inkscape:window-width="1696"
     inkscape:pageshadow="2"
     inkscape:pageopacity="0"
     guidetolerance="10"
     gridtolerance="10"
     objecttolerance="10"
     borderopacity="1"
     bordercolor="#666666"
     pagecolor="#ffffff" />
  <g
     transform="translate(-165.12435,-310.95455)"
     id="g1534"
     inkscape:label="Image"
     inkscape:groupmode="layer">
    <path
       sodipodi:nodetypes="ccccccccccc"
       id="path2099"
       d="m 188.36466,858.12063 0.44012,-109.44405 67.19398,-0.10928 0.15776,22.80599 -44.12736,-0.18944 0.003,21.28794 36.89454,1.00321 -6.64044,21.21755 -30.37386,-0.0529 0.74366,43.23539 z"
       style="fill:none;stroke:#eceff4;stroke-width:10;stroke-linecap:butt;stroke-linejoin:round;stroke-miterlimit:4;stroke-dasharray:none;stroke-opacity:1" />
    <path
       sodipodi:nodetypes="ccccccccc"
       id="path2101"
       d="m 296.87877,777.09496 c 0.013,-4.58926 2.19518,-6.43654 5.89591,-6.36427 l 22.20333,0.2889 c 2.93756,0.009 5.49467,0.59308 5.3705,5.39216 l 0.11156,53.11933 c 0.11872,2.83064 -1.38046,5.81094 -4.67206,5.8179 l -23.25143,-0.0894 c -3.32426,-0.0713 -5.73464,-1.05678 -5.76374,-4.6429 z"
       style="fill:none;stroke:#eceff4;stroke-width:10;stroke-linecap:butt;stroke-linejoin:miter;stroke-miterlimit:4;stroke-dasharray:none;stroke-opacity:1" />
    <path
       sodipodi:nodetypes="ccccccccc"
       id="path2103"
       d="m 292.94527,748.55825 c -6.49765,0.0635 -18.94425,2.92237 -19.1076,18.90563 l 0.072,71.56977 c 0.54674,11.51944 7.88586,18.31576 17.62109,18.4774 l 45.68594,-0.13911 c 6.35549,0.25914 15.93929,-2.52076 16.412,-17.7673 l -0.35687,-73.79878 c -0.54875,-12.68842 -8.98018,-16.9436 -16.00979,-17.01098 z"
       style="fill:none;stroke:#eceff4;stroke-width:10;stroke-linecap:butt;stroke-linejoin:miter;stroke-miterlimit:4;stroke-dasharray:none;stroke-opacity:1" />
    <path
       id="path2105"
       d="m 377.16039,749.04939 -0.021,108.31891 23.04651,0.006 -0.0454,-27.85288 21.97861,-0.005 16.27401,27.77521 25.99079,0.0225 -19.25929,-35.45585 22.41474,-31.30204 -28.21708,-41.86709 z"
       style="fill:none;stroke:#eceff4;stroke-width:10;stroke-linecap:round;stroke-linejoin:round;stroke-miterlimit:4;stroke-dasharray:none;stroke-opacity:1" />
    <path
       id="path2107"
       d="m 399.7471,771.88414 0.042,34.24801 27.62769,-0.0496 12.73753,-16.39716 -13.50211,-17.7323 z"
       style="fill:none;stroke:#eceff4;stroke-width:10;stroke-linecap:butt;stroke-linejoin:round;stroke-miterlimit:4;stroke-dasharray:none;stroke-opacity:1" />
    <path
       id="path2109"
       d="m 483.1374,748.41152 -0.23414,109.71468 22.78489,0.0481 -0.0968,-60.56059 20.36136,28.17271 10.24822,-0.0262 20.68029,-28.26832 -0.14589,60.19324 23.56555,-0.0632 -0.0131,-108.98628 -16.81548,-0.0133 -32.02839,43.74512 -33.32183,-43.71419 z"
       style="fill:none;stroke:#eceff4;stroke-width:10;stroke-linecap:butt;stroke-linejoin:round;stroke-miterlimit:4;stroke-dasharray:none;stroke-opacity:1" />
    <path
       sodipodi:nodetypes="ccccccccccccc"
       id="path2111"
       d="m 602.9248,748.32644 0.0713,95.62884 c 0.033,3.12239 7.51271,13.83603 16.76001,13.47604 l 44.35345,0.059 c 5.09436,-0.0685 15.78935,-10.32283 15.95159,-16.26292 l -0.12913,-92.61944 -22.96133,0.0536 -0.006,82.3823 c -0.0364,1.82036 -0.92449,3.79202 -3.60708,3.73126 l -23.85936,0.13783 c -3.59241,0.0624 -3.97771,-1.62388 -4.06267,-4.30027 l -0.14995,-82.34301 z"
       style="fill:none;stroke:#eceff4;stroke-width:10;stroke-linecap:butt;stroke-linejoin:round;stroke-miterlimit:4;stroke-dasharray:none;stroke-opacity:1" />
    <path
       sodipodi:nodetypes="ccccccc"
       id="path2113"
       d="m 703.93558,748.57977 -0.22748,109.3338 54.0286,-0.0706 8.23327,-22.12777 -39.35564,-0.0209 0.005,-87.02912 z"
       style="fill:none;stroke:#eceff4;stroke-width:10;stroke-linecap:butt;stroke-linejoin:round;stroke-miterlimit:4;stroke-dasharray:none;stroke-opacity:1" />
    <path
       sodipodi:nodetypes="ccccccccc"
       id="path2115"
       d="m 775.12021,857.61622 23.29529,0.002 4.72182,-12.55834 45.20943,-0.012 3.87518,12.3853 23.93215,0.0382 -37.26474,-108.88715 -24.72104,-0.0324 z"
       style="fill:none;stroke:#eceff4;stroke-width:10;stroke-linecap:butt;stroke-linejoin:round;stroke-miterlimit:4;stroke-dasharray:none;stroke-opacity:1" />
    <path
       id="path2117"
       d="m 826.11376,781.37495 -15.54312,42.77302 30.94099,-0.0908 z"
       style="fill:none;stroke:#eceff4;stroke-width:10;stroke-linecap:butt;stroke-linejoin:round;stroke-miterlimit:4;stroke-dasharray:none;stroke-opacity:1" />
    <path
       id="path2119"
       d="m 877.80376,790.42701 -0.0256,21.24353 22.97394,-0.0591 7.00689,-21.0963 z"
       style="fill:none;stroke:#eceff4;stroke-width:10;stroke-linecap:butt;stroke-linejoin:round;stroke-miterlimit:4;stroke-dasharray:none;stroke-opacity:1" />
    <path
       sodipodi:nodetypes="ccccccccccccc"
       id="path2121"
       d="m 920.64757,748.51731 -0.11773,108.79412 71.88888,0.12721 -0.0683,-22.09879 -48.38971,-0.10548 0.0249,-24.14095 36.3591,0.0172 7.0164,-20.42712 -43.41378,-0.22587 -0.0118,-20.00633 48.30217,0.16344 -0.0568,-21.72619 z"
       style="fill:none;stroke:#eceff4;stroke-width:10;stroke-linecap:butt;stroke-linejoin:round;stroke-miterlimit:4;stroke-dasharray:none;stroke-opacity:1" />
    <path
       sodipodi:nodetypes="ccccc"
       id="path2123"
       d="m 398.38113,565.98104 569.32705,0.0128 c -37.40208,48.84546 -101.70955,73.3307 -136.37393,73.15324 l -321.51757,-0.009 c -10.16573,0.10846 -82.66154,-7.73284 -111.43555,-73.15704 z"
       style="fill:none;stroke:#eceff4;stroke-width:25;stroke-linecap:butt;stroke-linejoin:miter;stroke-miterlimit:4;stroke-dasharray:none;stroke-opacity:1" />
    <path
       sodipodi:nodetypes="ccccccccc"
       id="path2125"
       d="m 191.50004,517.59254 527.48998,0.0388 C 842.77739,516.85137 882.93588,325.24516 753.25719,323.4546 l -183.62654,0.0999 c -67.765,1.2413 -108.75649,37.62538 -141.40004,72.69101 l 309.99415,-0.45144 c 34.13107,-0.6744 24.35679,49.4073 -8.00706,49.27546 l -402.65724,0.0929 c -38.1558,-0.59136 -93.14055,19.97011 -136.06042,72.43011 z"
       style="fill:none;stroke:#eceff4;stroke-width:25;stroke-linecap:butt;stroke-linejoin:miter;stroke-miterlimit:4;stroke-dasharray:none;stroke-opacity:1" />
  </g>
</svg>
