<?xml version="1.0" encoding="UTF-8" standalone="no"?>
<svg
   xmlns:dc="http://purl.org/dc/elements/1.1/"
   xmlns:cc="http://creativecommons.org/ns#"
   xmlns:rdf="http://www.w3.org/1999/02/22-rdf-syntax-ns#"
   xmlns:svg="http://www.w3.org/2000/svg"
   xmlns="http://www.w3.org/2000/svg"
   xmlns:sodipodi="http://sodipodi.sourceforge.net/DTD/sodipodi-0.dtd"
   xmlns:inkscape="http://www.inkscape.org/namespaces/inkscape"
   inkscape:version="1.0 (4035a4fb49, 2020-05-01)"
   sodipodi:docname="g2a.svg"
   viewBox="0 0 119.61707 35.733074"
   height="35.733074"
   width="119.61707"
   id="svg833"
   version="1.1">
  <metadata
     id="metadata839">
    <rdf:RDF>
      <cc:Work
         rdf:about="">
        <dc:format>image/svg+xml</dc:format>
        <dc:type
           rdf:resource="http://purl.org/dc/dcmitype/StillImage" />
        <dc:title></dc:title>
      </cc:Work>
    </rdf:RDF>
  </metadata>
  <defs
     id="defs837" />
  <sodipodi:namedview
     inkscape:current-layer="g841"
     inkscape:window-maximized="0"
     inkscape:window-y="65"
     inkscape:window-x="1716"
     inkscape:cy="-13.314922"
     inkscape:cx="64.618243"
     inkscape:zoom="6.608371"
     fit-margin-bottom="0"
     fit-margin-right="0"
     fit-margin-left="0"
     fit-margin-top="0"
     showgrid="false"
     id="namedview835"
     inkscape:window-height="1322"
     inkscape:window-width="1696"
     inkscape:pageshadow="2"
     inkscape:pageopacity="0"
     guidetolerance="10"
     gridtolerance="10"
     objecttolerance="10"
     borderopacity="1"
     bordercolor="#666666"
     pagecolor="#ffffff" />
  <g
     transform="translate(-4.6426759,-4.1755579)"
     id="g841"
     inkscape:label="Image"
     inkscape:groupmode="layer">
    <path
       sodipodi:nodetypes="ccccccccccccc"
       id="path845"
       d="m 41.643545,5.5341399 -20.32303,0.037079 C 1.0682346,5.6379728 0.43459684,38.281219 21.319784,38.577599 l 20.373814,-2e-5 0.02911,-19.977015 -21.3443,-0.04318 0.07469,7.009481 13.788548,-0.08087 -0.01974,6.031305 -12.580208,5.23e-4 C 10.977185,31.284333 10.468733,12.573932 21.623748,12.634626 l 20.100445,-0.04446 z"
       style="fill:none;stroke:#eceff4;stroke-width:2.5;stroke-linecap:butt;stroke-linejoin:miter;stroke-miterlimit:4;stroke-dasharray:none;stroke-opacity:1" />
    <path
       sodipodi:nodetypes="ccccccccccccccc"
       id="path847"
       d="m 47.75582,12.600577 24.989254,0.04645 c 2.711384,0.02932 2.937922,5.828033 0.112344,5.860983 L 55.933363,18.46783 c -6.301762,-0.0589 -8.690204,5.313953 -8.717449,8.397663 l -0.08649,11.74988 26.651294,-0.01103 3.651445,-7.0705 -22.809186,0.04636 0.04527,-3.32773 c 0.01332,-1.467644 0.417476,-2.635517 2.919179,-2.629499 l 16.360167,-0.0661 C 83.903284,25.445766 86.723066,5.7929223 73.404043,5.5453793 l -18.949995,0.06234 c -6.193555,0.056316 -6.715103,4.1589904 -6.698228,6.9928577 z"
       style="fill:none;stroke:#eceff4;stroke-width:2.5;stroke-linecap:butt;stroke-linejoin:miter;stroke-miterlimit:4;stroke-dasharray:none;stroke-opacity:1" />
    <ellipse
       ry="0.62632537"
       rx="0.6255604"
       cy="38.05175"
       cx="91.898956"
       id="path849"
       style="fill:#eceff4;fill-opacity:1;stroke:none;stroke-width:22.2063;stroke-linecap:round;stroke-linejoin:round;stroke-miterlimit:4;stroke-dasharray:none;stroke-opacity:1" />
    <path
       sodipodi:nodetypes="ccc"
       id="path851"
       d="m 97.224549,35.01569 c -1.414571,0.03025 -3.901602,-0.335791 -3.888085,1.600734 0.06025,2.045269 2.714408,1.51688 3.885335,1.548775"
       style="fill:none;stroke:#eceff4;stroke-width:1px;stroke-linecap:butt;stroke-linejoin:miter;stroke-opacity:1" />
    <path
       sodipodi:nodetypes="ccccc"
       id="path853"
       d="m 100.32259,34.942681 c -1.696385,-0.02271 -2.068148,0.607178 -2.070253,1.637173 0.02726,1.039434 1.028041,1.629633 2.148513,1.653818 1.65786,4.6e-4 2.23453,-0.991275 2.19837,-1.713225 -0.0602,-1.54422 -1.1489,-1.571379 -2.27663,-1.577766 z"
       style="fill:none;stroke:#eceff4;stroke-width:1px;stroke-linecap:butt;stroke-linejoin:miter;stroke-opacity:1" />
    <path
       sodipodi:nodetypes="ccccc"
       id="path855"
       d="m 103.44636,38.447077 1.59178,-3.673978 1.53373,3.46546 1.3932,-3.454481 c 0.51372,1.234833 1.03037,2.478552 1.57623,3.810723"
       style="fill:none;stroke:#eceff4;stroke-width:1px;stroke-linecap:butt;stroke-linejoin:bevel;stroke-opacity:1" />
    <path
       sodipodi:nodetypes="cccccccccccc"
       id="path857"
       d="m 79.256529,38.545232 8.516782,0.03757 12.910619,-24.785344 6.10472,11.56424 -9.403997,0.09182 3.409677,6.301761 9.31525,-0.04883 3.68514,6.945238 8.40193,-0.0774 L 106.01839,7.9197552 C 104.45419,4.5834643 97.179853,4.596845 95.504326,7.9439532 Z"
       style="fill:none;stroke:#eceff4;stroke-width:2.5;stroke-linecap:butt;stroke-linejoin:miter;stroke-miterlimit:4;stroke-dasharray:none;stroke-opacity:1" />
  </g>
</svg>
