<?xml version="1.0" encoding="UTF-8" standalone="no"?>
<svg
   xmlns:dc="http://purl.org/dc/elements/1.1/"
   xmlns:cc="http://creativecommons.org/ns#"
   xmlns:rdf="http://www.w3.org/1999/02/22-rdf-syntax-ns#"
   xmlns:svg="http://www.w3.org/2000/svg"
   xmlns="http://www.w3.org/2000/svg"
   xmlns:sodipodi="http://sodipodi.sourceforge.net/DTD/sodipodi-0.dtd"
   xmlns:inkscape="http://www.inkscape.org/namespaces/inkscape"
   inkscape:version="1.0 (4035a4fb49, 2020-05-01)"
   sodipodi:docname="IDF.svg"
   viewBox="0 0 312.70165 255.61007"
   height="255.61006"
   width="312.70166"
   id="svg1616"
   version="1.1">
  <metadata
     id="metadata1622">
    <rdf:RDF>
      <cc:Work
         rdf:about="">
        <dc:format>image/svg+xml</dc:format>
        <dc:type
           rdf:resource="http://purl.org/dc/dcmitype/StillImage" />
        <dc:title></dc:title>
      </cc:Work>
    </rdf:RDF>
  </metadata>
  <defs
     id="defs1620" />
  <sodipodi:namedview
     inkscape:current-layer="g1624"
     inkscape:window-maximized="0"
     inkscape:window-y="65"
     inkscape:window-x="1722"
     inkscape:cy="132.43864"
     inkscape:cx="241.85573"
     inkscape:zoom="1.4142136"
     fit-margin-bottom="0"
     fit-margin-right="0"
     fit-margin-left="0"
     fit-margin-top="0"
     showgrid="false"
     id="namedview1618"
     inkscape:window-height="1322"
     inkscape:window-width="1690"
     inkscape:pageshadow="2"
     inkscape:pageopacity="0"
     guidetolerance="10"
     gridtolerance="10"
     objecttolerance="10"
     borderopacity="1"
     bordercolor="#666666"
     pagecolor="#ffffff" />
  <g
     transform="translate(-42.21962,-54.273681)"
     id="g1624"
     inkscape:label="Image"
     inkscape:groupmode="layer">
    <path
       id="path2191"
       d="M 90.901623,306.82628 306.75684,306.60055"
       style="fill:none;stroke:#eceff4;stroke-width:10;stroke-linecap:round;stroke-linejoin:round;stroke-miterlimit:4;stroke-dasharray:none;stroke-opacity:1" />
    <path
       sodipodi:nodetypes="ccccc"
       id="path2193"
       d="m 46.154852,187.14807 c 1.057739,9.98066 0.452821,18.59255 -2.40659,25.34847 15.180187,-1.52688 27.206017,0.0737 36.748522,4.13648 0.42635,-9.05671 -0.14714,-19.00507 3.138583,-25.51185 -12.595981,0.47258 -25.140211,0.0376 -37.480515,-3.9731 z"
       style="fill:none;fill-opacity:1;stroke:#eceff4;stroke-width:5;stroke-linecap:butt;stroke-linejoin:round;stroke-miterlimit:4;stroke-dasharray:none;stroke-opacity:1" />
    <path
       sodipodi:nodetypes="ccccc"
       id="path2195"
       d="m 64.813391,139.57934 c 6.258694,-3.85318 12.753094,-7.63541 14.79974,-12.75654 6.952932,4.47693 13.664603,11.27992 20.117651,20.57621 -6.353898,3.43008 -10.691945,8.3244 -14.855256,13.34564 -5.391979,-8.70892 -12.4737,-15.26057 -20.062135,-21.16531 z"
       style="fill:none;stroke:#eceff4;stroke-width:5;stroke-linecap:butt;stroke-linejoin:round;stroke-miterlimit:4;stroke-dasharray:none;stroke-opacity:1" />
    <path
       sodipodi:nodetypes="ccccc"
       id="path2197"
       d="m 130.39291,120.14645 c 0.88699,11.67341 -0.60784,22.11275 10.74507,39.20882 -8.33695,1.08386 -16.09864,4.06367 -23.51815,8.17122 -2.39166,-13.57519 -10.43337,-25.3034 -17.874154,-37.22804 11.845874,0.65116 20.971464,-5.43136 30.647234,-10.152 z"
       style="fill:none;stroke:#eceff4;stroke-width:5;stroke-linecap:butt;stroke-linejoin:round;stroke-miterlimit:4;stroke-dasharray:none;stroke-opacity:1" />
    <path
       sodipodi:nodetypes="ccccc"
       id="path2199"
       d="m 111.33905,96.265092 c 9.02788,-6.116125 11.8268,-10.164745 12.92618,-13.649283 11.35544,6.027904 14.15923,12.273607 19.0407,18.466411 -5.65457,3.56121 -8.04785,8.94744 -11.86805,13.53517 -6.07865,-7.23287 -11.69128,-15.302899 -20.09883,-18.352298 z"
       style="fill:none;stroke:#eceff4;stroke-width:5;stroke-linecap:butt;stroke-linejoin:round;stroke-miterlimit:4;stroke-dasharray:none;stroke-opacity:1" />
    <path
       sodipodi:nodetypes="ccccc"
       id="path2201"
       d="m 136.81549,129.61778 c 6.65969,-2.90606 13.17285,-5.94042 17.84496,-10.58692 2.58056,7.89811 4.71577,15.81312 10.49131,23.58971 -5.27727,0.90831 -9.57947,3.60823 -12.9051,8.10253 -3.12295,-10.2212 -8.61392,-16.70882 -15.43117,-21.10532 z"
       style="fill:none;stroke:#eceff4;stroke-width:5;stroke-linecap:butt;stroke-linejoin:round;stroke-miterlimit:4;stroke-dasharray:none;stroke-opacity:1" />
    <path
       sodipodi:nodetypes="cccccccc"
       id="path2203"
       d="m 147.24579,97.87862 c 7.65618,-7.340972 15.79863,-12.382765 24.32661,-15.601691 7.42271,3.10243 13.16292,21.494061 19.57087,33.817821 l -8.93003,3.43417 c -1.67844,2.12194 0.81339,8.10354 -1.72022,12.12766 -0.79673,-3.25632 0.0778,-7.49941 -2.67279,-9.60214 l -6.94582,4.26212 c -6.07403,-11.35864 -13.24332,-21.57512 -23.62862,-28.43794 z"
       style="fill:none;stroke:#eceff4;stroke-width:5;stroke-linecap:butt;stroke-linejoin:round;stroke-miterlimit:4;stroke-dasharray:none;stroke-opacity:1" />
    <path
       sodipodi:nodetypes="ccccc"
       id="path2205"
       d="m 173.58405,61.83319 c 7.40899,-2.987967 15.55738,-5.673524 29.39848,-6.030781 5.67024,9.819946 4.33199,24.003907 6.15295,36.220698 -7.78466,-1.973271 -15.41565,0.116201 -23.04444,2.263475 -0.19672,-12.143486 -4.50175,-22.91589 -12.50699,-32.453392 z"
       style="fill:none;stroke:#eceff4;stroke-width:5;stroke-linecap:butt;stroke-linejoin:round;stroke-miterlimit:4;stroke-dasharray:none;stroke-opacity:1" />
    <path
       sodipodi:nodetypes="ccccc"
       id="path2207"
       d="m 219.31057,73.952654 c -2.88985,11.124395 -0.63251,20.819208 -0.94875,31.228826 6.06805,-1.37032 12.14744,-1.71288 18.24636,-0.28257 -0.77752,-11.248059 2.9526,-20.081709 6.56961,-28.975949 -8.92809,-1.223549 -18.91593,-3.064839 -23.86722,-1.970307 z"
       style="fill:none;stroke:#eceff4;stroke-width:5;stroke-linecap:butt;stroke-linejoin:round;stroke-miterlimit:4;stroke-dasharray:none;stroke-opacity:1" />
    <path
       sodipodi:nodetypes="ccccc"
       id="path2209"
       d="m 196.83218,107.66594 c 5.56853,-0.604 11.19179,-0.9999 16.28663,-3.40502 0.80301,7.95755 1.44406,15.91511 5.16906,23.87268 -5.59962,0.11219 -11.17591,0.40207 -16.45897,2.92542 -0.89655,-8.0024 -0.85978,-16.25322 -4.99672,-23.39308 z"
       style="fill:none;stroke:#eceff4;stroke-width:5;stroke-linecap:butt;stroke-linejoin:round;stroke-miterlimit:4;stroke-dasharray:none;stroke-opacity:1" />
    <path
       sodipodi:nodetypes="ccccc"
       id="path2211"
       d="m 254.08514,83.287226 c -0.74916,12.232904 -5.05144,23.595314 -10.72195,34.622514 8.4634,1.29128 16.55023,4.14321 24.47165,7.68072 1.60996,-11.8411 4.54559,-23.41644 10.40424,-34.405692 -8.60815,-0.885359 -16.96599,-2.556108 -24.15394,-7.897542 z"
       style="fill:none;stroke:#eceff4;stroke-width:5;stroke-linecap:butt;stroke-linejoin:round;stroke-miterlimit:4;stroke-dasharray:none;stroke-opacity:1" />
    <path
       sodipodi:nodetypes="ccccc"
       id="path2213"
       d="m 300.2177,103.27722 c -4.02204,5.41589 -7.28629,10.62155 -10.63845,21.19544 5.90826,1.10117 8.92895,3.75777 12.39259,6.17577 4.22974,-6.44375 8.17624,-13.11156 14.26478,-18.08477 -4.76012,-3.89377 -9.36859,-7.99643 -16.01892,-9.28644 z"
       style="fill:none;stroke:#eceff4;stroke-width:5;stroke-linecap:butt;stroke-linejoin:round;stroke-miterlimit:4;stroke-dasharray:none;stroke-opacity:1" />
    <path
       sodipodi:nodetypes="ccccc"
       id="path2215"
       d="m 293.25458,168.94929 c 6.97703,4.56375 13.00932,9.98614 17.59164,16.7264 8.19428,-10.54163 19.89669,-17.05613 31.23148,-23.99262 -9.34192,-5.35062 -15.97288,-13.32631 -21.57694,-22.29637 -5.32196,12.842 -14.90152,22.30087 -27.24618,29.56259 z"
       style="fill:none;stroke:#eceff4;stroke-width:5;stroke-linecap:butt;stroke-linejoin:round;stroke-miterlimit:4;stroke-dasharray:none;stroke-opacity:1" />
    <path
       sodipodi:nodetypes="ccccc"
       id="path2217"
       d="m 304.71968,194.72605 c 4.19802,8.42912 7.74766,17.09104 8.76374,26.6626 13.02865,-4.89929 25.69359,-10.96915 39.90923,-12.04805 -5.19547,-9.09624 -7.57922,-18.64832 -9.49357,-28.27648 -10.48781,7.77122 -24.25638,11.43861 -39.1794,13.66193 z"
       style="fill:none;stroke:#eceff4;stroke-width:5;stroke-linecap:butt;stroke-linejoin:round;stroke-miterlimit:4;stroke-dasharray:none;stroke-opacity:1" />
    <path
       sodipodi:nodetypes="cccccccc"
       id="path2219"
       d="m 228.31336,117.66163 c -1.87321,21.61327 -4.85338,30.48372 -8.25482,34.50491 l 8.51787,2.05497 c 2.60977,8.40688 -3.07266,16.04729 -4.63563,24.06847 3.48315,-7.08869 7.91944,-10.66643 10.25725,-21.97412 l 6.82949,3.59847 c 1.42576,-12.67129 6.43309,-23.08215 12.72668,-32.68122 -9.02453,-1.57951 -17.61516,-4.44338 -25.44084,-9.57148 z"
       style="fill:none;stroke:#eceff4;stroke-width:5;stroke-linecap:butt;stroke-linejoin:round;stroke-miterlimit:4;stroke-dasharray:none;stroke-opacity:1" />
    <path
       sodipodi:nodetypes="cccccccc"
       id="path2221"
       d="m 279.61981,129.99701 c -7.08492,12.95691 -14.77719,23.28883 -23.80753,27.83728 l 11.33164,8.96211 c -5.67162,3.72188 -5.84002,11.60228 -8.61088,17.51615 3.71798,-5.33744 5.92792,-12.05856 11.50384,-15.69122 l 6.36253,6.69215 c 8.68498,-8.87003 18.65681,-17.22808 22.67631,-27.95429 -6.19018,-3.7034 -12.42846,-7.74645 -19.45591,-17.36218 z"
       style="fill:none;stroke:#eceff4;stroke-width:5;stroke-linecap:butt;stroke-linejoin:round;stroke-miterlimit:4;stroke-dasharray:none;stroke-opacity:1" />
    <path
       sodipodi:nodetypes="cccccccccccccccccccccccccccccccccccccccccccccccccccccccccccccccccccccccccccccccccccccccccccc"
       id="path2223"
       d="m 173.70042,303.83416 c 6.13815,0.0254 8.86459,-7.03226 8.68537,-24.55336 0.37762,-14.8047 -5.18185,-27.92618 -27.04282,-36.42602 -4.58418,-0.33808 -7.85913,2.8359 -11.64923,4.62797 1.04304,1.96178 2.94164,3.25269 5.61695,3.93458 -6.20601,4.17459 -10.72092,9.47709 -14.44451,15.30736 -2.263,-3.73516 -6.28685,-6.93799 -10.52886,-10.07486 5.69809,-7.8571 7.8946,-9.7767 13.80682,-13.93968 l 3.4863,3.27619 c 4.19885,-1.8884 8.2814,-3.77465 8.90621,-5.5971 -11.00274,-3.79619 -22.39718,-6.55131 -34.93561,-6.26571 l 0.0164,9.68656 c -13.89763,-2.23686 -25.09412,1.16909 -36.123998,4.92305 -1.898304,-9.647 -3.06261,-19.29931 0.350839,-28.98464 12.653964,-2.14829 25.534399,0.77698 38.360929,2.49482 -1.49546,3.3224 -1.69423,5.37592 -2.50664,8.02992 9.32191,1.05647 16.58449,-0.61719 24.87673,-0.92579 1.09803,-7.58006 -25.99171,-15.29909 -34.38993,-24.98312 -3.80471,0.58933 -7.865449,2.29327 -9.571942,4.58017 -0.986427,-12.18777 -7.229785,-22.4545 -14.242235,-32.44017 8.857337,-2.01724 17.621783,-4.37114 25.611377,-9.53291 1.48531,11.3784 2.62738,22.79831 8.97613,33.58846 -8.30494,1.93952 -7.73144,2.373 -9.25785,3.16268 7.15671,7.43891 13.98494,8.94517 21.36191,10.84653 -0.20503,-3.22674 -1.05755,-6.78354 0.14222,-9.29416 -1.38922,-0.89738 -3.05388,-0.6738 -4.6982,-0.53298 -0.0344,-5.31382 -1.01925,-10.9266 1.1226,-15.55589 5.6738,0.0778 7.37124,0.53477 11.66423,0.95526 -1.75827,4.9703 -3.95654,9.13035 -3.10629,14.75926 -1.64587,-0.10637 -3.60775,-0.38948 -3.65231,0.39932 -0.9575,2.90803 -0.12293,6.58558 0.29206,9.68865 17.03042,6.44638 16.30939,11.2209 21.76813,16.33894 8.12225,1.14094 10.98001,3.04481 16.24203,4.60026 -0.63841,-1.32771 -0.92118,-6.43139 -1.36641,-9.81012 l -4.82194,2.17562 c -0.34235,-8.91166 -4.40971,-10.93593 -7.6954,-14.40547 4.34344,-1.74407 8.65012,-3.71999 13.20493,-4.13089 1.46436,4.93333 2.7587,10.32036 4.09193,15.60357 l -4.27975,0.58754 c 0.71874,4.04378 1.73638,8.50438 3.05029,10.28962 3.99065,0.90344 7.61571,2.57079 11.24022,4.23929 1.53432,-27.51183 -10.41791,-36.02602 -13.98389,-41.73417 l -9.6411,7.52214 c -4.78255,-11.30893 -13.43489,-20.11594 -22.0831,-28.92563 7.7315,-3.96338 15.50968,-7.86831 21.22695,-14.35362 10.47795,7.61714 15.61246,18.78737 22.16577,29.01418 -3.91668,0.89424 -6.48399,2.95332 -8.98633,5.06849 6.61098,4.46499 9.89602,10.11389 13.87908,15.51431 3.32368,0.0536 5.29202,-3.08425 6.67909,-7.5907 l -5.79512,-1.95794 c 4.39032,-5.84011 5.46758,-13.09115 7.26398,-20.03592 l 14.2902,5.67979 c -2.04299,6.7833 -2.58636,13.78026 -7.29084,20.18436 l -6.86422,-2.9188 c -0.5416,2.88449 0.49326,5.05836 -6.29816,10.76001 4.44576,8.99347 7.643,18.47513 9.48105,28.48825 26.59457,-26.26467 17.27859,-49.45122 12.59122,-73.03451 -4.43858,1.62069 -7.08603,4.78667 -10.20514,7.54573 -10.6784,-16.95225 -20.34221,-20.94381 -30.21651,-27.62435 8.67751,-7.84004 17.25973,-16.40714 26.49431,-19.99776 11.88157,10.38728 16.97294,23.07082 24.57928,34.90386 -3.8457,0.722 -7.13362,2.05131 -9.18141,4.73085 8.19035,10.79498 8.75971,18.53062 12.82004,27.66767 2.8872,-2.88321 5.42645,-5.85768 9.94789,-8.31225 l -3.14972,-1.98706 c 3.41286,-6.29579 8.34255,-10.6236 13.69571,-14.40203 l 11.68991,9.21714 c -7.98176,3.59303 -10.68959,9.60897 -14.7425,15.00696 -1.73054,-2.21575 -2.89679,-5.11652 -5.77693,-5.93667 -14.78469,16.02543 -8.34628,23.45817 -12.19852,42.71799 7.7144,-3.4692 15.07347,-5.80909 21.76182,-6.0174 -0.21904,-6.73333 6.13128,-12.31392 12.90423,-17.82037 l -7.29051,-7.7373 c 9.33984,-9.21631 18.63914,-18.56893 29.63384,-22.22015 9.52745,6.68658 11.81567,15.15728 16.75427,22.97479 -14.4969,3.33905 -23.14785,10.32626 -32.3374,16.97736 l -5.8905,-8.43864 c -3.07817,5.2576 -7.89316,10.6389 -7.66649,15.66119 10.55398,-1.2211 20.5601,-0.13901 30.70904,0.3427 1.14146,-3.53231 0.59421,-6.95042 0.61823,-10.40716 14.67545,-0.58448 25.95025,3.1811 36.33267,8.0882 -3.5532,7.92245 -4.81244,16.35059 -4.80411,25.05816 -22.37514,-10.02213 -29.46387,-8.5846 -35.76009,-7.74823 l 3.06924,-11.48733 c -25.21687,-1.1944 -32.97432,2.6442 -39.883,6.72749 l 12.4198,1.75685 2.70627,-3.95532 c 6.19148,2.0002 11.8577,4.85939 16.66627,9.12105 -3.47085,4.17368 -4.18913,8.14559 -5.67767,12.17396 -4.89692,-3.86081 -10.04843,-7.53928 -17.89599,-9.28667 1.74968,-1.57925 3.25286,-3.44243 3.80799,-6.39755 -45.57342,-10.62292 -46.90359,60.82863 -29.92055,61.18663"
       style="fill:none;stroke:#eceff4;stroke-width:5;stroke-linecap:butt;stroke-linejoin:round;stroke-miterlimit:4;stroke-dasharray:none;stroke-opacity:1" />
  </g>
</svg>
