<?xml version="1.0" encoding="UTF-8" standalone="no"?>
<svg
   xmlns:dc="http://purl.org/dc/elements/1.1/"
   xmlns:cc="http://creativecommons.org/ns#"
   xmlns:rdf="http://www.w3.org/1999/02/22-rdf-syntax-ns#"
   xmlns:svg="http://www.w3.org/2000/svg"
   xmlns="http://www.w3.org/2000/svg"
   xmlns:sodipodi="http://sodipodi.sourceforge.net/DTD/sodipodi-0.dtd"
   xmlns:inkscape="http://www.inkscape.org/namespaces/inkscape"
   sodipodi:docname="prime.svg"
   inkscape:version="1.0 (4035a4fb49, 2020-05-01)"
   id="svg4674"
   version="1.1"
   viewBox="0 0 265.29034 167.63123"
   height="167.63123mm"
   width="265.29034mm">
  <defs
     id="defs4668" />
  <sodipodi:namedview
     inkscape:window-maximized="1"
     inkscape:window-y="63"
     inkscape:window-x="1723"
     inkscape:window-height="1337"
     inkscape:window-width="1702"
     showgrid="false"
     inkscape:document-rotation="0"
     inkscape:current-layer="layer1"
     inkscape:document-units="mm"
     inkscape:cy="287.70942"
     inkscape:cx="438.68295"
     inkscape:zoom="0.7"
     inkscape:pageshadow="2"
     inkscape:pageopacity="0.0"
     borderopacity="1.0"
     bordercolor="#666666"
     pagecolor="#ffffff"
     id="base" />
  <metadata
     id="metadata4671">
    <rdf:RDF>
      <cc:Work
         rdf:about="">
        <dc:format>image/svg+xml</dc:format>
        <dc:type
           rdf:resource="http://purl.org/dc/dcmitype/StillImage" />
        <dc:title></dc:title>
      </cc:Work>
    </rdf:RDF>
  </metadata>
  <g
     transform="translate(19.908957,-54.419957)"
     id="layer1"
     inkscape:groupmode="layer"
     inkscape:label="Layer 1">
    <path
       sodipodi:nodetypes="csccccccc"
       id="path5251"
       d="m -13.744479,167.15083 c -2.489106,-1.41779 -2.97939,-0.59377 -3.596169,-0.008 -0.792309,0.75226 -1.065752,2.31362 1.044721,3.98856 52.352671,46.99204 113.9499,48.4934 118.816567,48.66786 40.1599,2.28854 87.43327,-10.36086 116.79149,-32.9414 1.6397,-1.62661 1.58056,-3.2313 0.15142,-5.00079 -0.78285,-0.96216 -1.63199,-1.86094 -4.28793,-1.03243 -9.28367,3.03825 -44.128,20.61633 -103.01517,20.39801 -11.78912,-0.66648 -63.254198,0.84944 -125.904929,-34.07181 z"
       style="fill:none;stroke:#eceff4;stroke-width:3.96875;stroke-linecap:butt;stroke-linejoin:round;stroke-miterlimit:4;stroke-dasharray:none;stroke-opacity:1" />
    <path
       sodipodi:nodetypes="cccccccccccc"
       id="path5253"
       d="m 196.55011,168.91246 c -1.7651,1.20289 -2.19936,2.0739 -1.98896,3.02109 0.35676,1.38424 2.4734,0.98918 2.79637,0.95752 11.59382,-1.64314 20.82659,-1.96645 27.99655,-1.13664 1.63783,0.20042 6.73875,1.31729 5.9613,7.4158 -1.27103,8.55158 -4.67365,17.70164 -8.32592,26.9218 -0.76948,1.94939 -0.59603,2.31135 0.0414,2.94903 0.90941,0.84361 2.66387,0.12288 3.88268,-1.01728 10.02123,-8.98784 17.34742,-27.8017 16.37289,-40.00958 -0.55071,-4.03682 -0.76394,-4.0305 -5.23062,-5.29342 -4.83331,-1.13166 -8.7782,-1.39641 -16.8763,-1.28331 -11.35129,0.55269 -18.81931,3.50219 -24.62939,7.47499 z"
       style="fill:none;stroke:#eceff4;stroke-width:3.96875;stroke-linecap:butt;stroke-linejoin:miter;stroke-miterlimit:4;stroke-dasharray:none;stroke-opacity:1" />
    <path
       sodipodi:nodetypes="cccccccccccccc"
       id="path5255"
       d="m -16.798174,82.709016 -0.02094,67.264214 c 0.01594,1.89894 0.411151,2.13843 2.007491,2.15003 l 10.5235358,0.008 c 1.5191101,0.002 2.1621482,-0.74542 2.160767,-2.09736 l -0.00908,-22.3707 c 4.3399501,3.88226 11.0881654,4.3319 13.7532322,4.61491 11.19247,1.13822 22.024394,-9.5865 22.07818,-26.49741 C 33.678516,93.744802 28.92886,78.670393 12.546898,78.627119 6.4242646,78.727978 1.4595131,80.37582 -3.4999211,84.963094 l -0.8606303,-3.458577 c -0.1777344,-0.718654 -1.1492901,-1.378733 -2.2905002,-1.359136 l -8.3082324,0.0079 c -0.81841,0.02042 -1.783508,1.228812 -1.83889,2.555735 z"
       style="fill:none;stroke:#eceff4;stroke-width:3.96875;stroke-linecap:butt;stroke-linejoin:miter;stroke-miterlimit:4;stroke-dasharray:none;stroke-opacity:1" />
    <path
       sodipodi:nodetypes="cccccc"
       id="path5257"
       d="m -2.0544877,92.410223 0.00454,26.200917 c 1.6428878,1.53271 6.4664515,2.77822 9.7735109,2.75979 4.1554938,-0.002 10.6588108,-0.57492 11.1138168,-15.95419 0.09748,-3.12789 0.210851,-15.984667 -10.968989,-15.862694 -6.3671349,0.405609 -9.3472098,2.208015 -9.9228787,2.856177 z"
       style="fill:none;stroke:#eceff4;stroke-width:3.96875;stroke-linecap:butt;stroke-linejoin:miter;stroke-miterlimit:4;stroke-dasharray:none;stroke-opacity:1" />
    <path
       sodipodi:nodetypes="ccccccccccccccccc"
       id="path5259"
       d="m 43.452473,82.702264 -0.142918,45.869996 c 0.01568,1.46836 0.257297,2.75541 2.336226,2.76122 l 10.551747,-0.0426 c 1.165744,0.0104 1.944091,-0.47213 1.891377,-2.01194 l 0.02619,-34.015441 c 3.691107,-2.032492 7.474033,-2.566814 11.293313,-2.507956 1.847831,0.05094 3.530608,0.128249 5.264936,0.197324 0.74019,-0.01101 1.769395,-0.569586 1.774969,-1.92951 l 0.01001,-9.411733 c -8.01e-4,-0.820416 -0.386592,-2.07611 -1.956546,-2.00505 -1.061368,0.04769 -1.535869,0.02277 -3.194103,0.144291 -8.109648,0.804416 -10.497932,4.847973 -14.282096,8.101254 L 55.914261,82.347457 C 55.57592,80.897125 54.726153,80.179349 53.358198,80.203816 l -7.816193,0.01179 c -1.100667,0.0089 -2.114871,0.193159 -2.089535,2.486661 z"
       style="fill:none;stroke:#eceff4;stroke-width:3.96875;stroke-linecap:butt;stroke-linejoin:miter;stroke-miterlimit:4;stroke-dasharray:none;stroke-opacity:1" />
    <ellipse
       ry="7.9844618"
       rx="8.6102428"
       cy="64.388794"
       cx="90.846611"
       id="path5261"
       style="opacity:1;fill:none;fill-opacity:0.504447;fill-rule:evenodd;stroke:#eceff4;stroke-width:3.96875;stroke-linecap:round;stroke-linejoin:round;stroke-miterlimit:4;stroke-dasharray:none;stroke-opacity:1" />
    <rect
       y="81.904549"
       x="85.1791"
       height="47.721809"
       width="11.252866"
       id="rect5265"
       style="opacity:1;fill:none;fill-opacity:0.504447;fill-rule:evenodd;stroke:#eceff4;stroke-width:3.96875;stroke-linecap:round;stroke-linejoin:round;stroke-miterlimit:4;stroke-dasharray:none;stroke-opacity:1" />
    <path
       sodipodi:nodetypes="ccccccccccccccccccccccccccc"
       id="path5269"
       d="m 110.54099,82.512296 -0.0103,46.208174 c 0.0727,1.67895 0.73836,2.53851 1.9972,2.5783 l 10.0391,-0.002 c 1.89244,-0.0961 2.74762,-0.74236 2.79088,-1.81924 l 0.003,-36.764246 c 2.73238,-1.86258 5.50505,-2.503509 9.69198,-2.833394 6.31127,-0.606857 7.32713,3.85393 7.38174,5.405917 l -0.0423,34.184713 c 0.0133,1.00433 0.78309,1.97469 2.04941,1.95311 l 10.33882,0.0283 c 1.27773,-0.004 2.19902,-0.16407 2.19004,-2.35997 l -0.006,-36.403285 c 1.28359,-1.212174 4.32577,-2.87479 10.40479,-2.908835 4.24597,-0.06861 6.6822,2.069895 6.74176,5.439429 l 0.021,33.841741 c -0.0396,1.66422 1.1811,2.16855 2.3782,2.15503 l 10.42788,-0.0132 c 0.60846,-0.0104 1.71648,-0.24421 1.71623,-1.67085 l -0.0228,-37.837389 c -0.0967,-8.060161 -6.21265,-13.10591 -14.80057,-13.018567 -8.87514,0.20762 -13.77466,3.440369 -18.7233,6.442143 -2.3361,-4.315512 -7.01339,-6.553829 -12.96222,-6.61563 -8.05729,0.111348 -12.8579,3.721002 -18.27095,6.672787 -0.64023,-2.317101 -0.96485,-5.154484 -3.06141,-5.070817 l -7.8069,-0.01236 c -2.12083,-0.08684 -2.46632,1.04747 -2.46528,2.420139 z"
       style="fill:none;stroke:#eceff4;stroke-width:3.96875;stroke-linecap:butt;stroke-linejoin:miter;stroke-miterlimit:4;stroke-dasharray:none;stroke-opacity:1" />
    <path
       sodipodi:nodetypes="ccccc"
       id="path5271"
       d="m 211.17829,100.82468 c 0.94434,-7.592083 4.47064,-12.047712 11.0311,-12.241125 8.54858,0.194196 7.76696,4.952 7.85225,6.998455 -0.0819,1.662677 -0.3374,5.80529 -10.2866,5.81811 -3.08957,-0.0889 -5.73821,-0.38039 -8.59675,-0.57544 z"
       style="fill:none;stroke:#eceff4;stroke-width:3.96875;stroke-linecap:butt;stroke-linejoin:miter;stroke-miterlimit:4;stroke-dasharray:none;stroke-opacity:1" />
    <path
       sodipodi:nodetypes="cccccccccccc"
       id="path5273"
       d="m 210.99875,109.26439 c 0.62538,9.842 6.51419,12.77591 14.69553,12.70093 8.11956,-0.53987 10.15245,-1.24923 12.80881,-1.94122 1.89496,-0.59694 2.40635,0.31271 2.70552,1.45345 l -0.01,6.32007 c 0.004,0.98366 -0.97042,1.72148 -1.18428,1.84142 -6.1235,2.88649 -11.26851,3.07852 -16.44621,3.18449 -8.38353,-0.0875 -25.55353,-1.97928 -25.71408,-26.60554 0.13413,-22.932737 15.43262,-27.41371 24.93551,-27.543282 12.50216,-0.163626 19.90591,4.629348 20.59895,15.946384 0.46173,15.831988 -17.34032,15.548098 -22.08899,15.727758 -2.45779,0.033 -4.68966,0.0893 -10.30076,-1.08446 z"
       style="fill:none;stroke:#eceff4;stroke-width:3.96875;stroke-linecap:butt;stroke-linejoin:miter;stroke-miterlimit:4;stroke-dasharray:none;stroke-opacity:1" />
  </g>
</svg>
