<?xml version="1.0" encoding="UTF-8" standalone="no"?>
<svg
   xmlns:dc="http://purl.org/dc/elements/1.1/"
   xmlns:cc="http://creativecommons.org/ns#"
   xmlns:rdf="http://www.w3.org/1999/02/22-rdf-syntax-ns#"
   xmlns:svg="http://www.w3.org/2000/svg"
   xmlns="http://www.w3.org/2000/svg"
   xmlns:sodipodi="http://sodipodi.sourceforge.net/DTD/sodipodi-0.dtd"
   xmlns:inkscape="http://www.inkscape.org/namespaces/inkscape"
   version="1.1"
   id="svg933"
   width="1471.8805"
   height="1450.3037"
   viewBox="0 0 1471.8805 1450.3037"
   sodipodi:docname="qwiklabs.svg"
   inkscape:version="1.0.2 (e86c870879, 2021-01-15)">
  <metadata
     id="metadata939">
    <rdf:RDF>
      <cc:Work
         rdf:about="">
        <dc:format>image/svg+xml</dc:format>
        <dc:type
           rdf:resource="http://purl.org/dc/dcmitype/StillImage" />
        <dc:title></dc:title>
      </cc:Work>
    </rdf:RDF>
  </metadata>
  <defs
     id="defs937" />
  <sodipodi:namedview
     pagecolor="#ffffff"
     bordercolor="#666666"
     borderopacity="1"
     objecttolerance="10"
     gridtolerance="10"
     guidetolerance="10"
     inkscape:pageopacity="0"
     inkscape:pageshadow="2"
     inkscape:window-width="1693"
     inkscape:window-height="1361"
     id="namedview935"
     showgrid="false"
     fit-margin-top="0"
     fit-margin-left="0"
     fit-margin-right="0"
     fit-margin-bottom="0"
     inkscape:zoom="0.59788724"
     inkscape:cx="761.25662"
     inkscape:cy="768.06805"
     inkscape:window-x="1725"
     inkscape:window-y="57"
     inkscape:window-maximized="0"
     inkscape:current-layer="g941" />
  <g
     inkscape:groupmode="layer"
     inkscape:label="Image"
     id="g941"
     transform="translate(34.55903,35.122894)">
    <path
       style="fill:none;stroke:#eceff4;stroke-width:70;stroke-linecap:butt;stroke-linejoin:miter;stroke-miterlimit:4;stroke-dasharray:none;stroke-opacity:1"
       d="m 557.11307,1048.9262 c 23.57196,13.2595 62.45507,2.8635 62.25882,-38.2149 l 1.02993,-312.95821 c 0.34861,-105.93185 158.9473,-102.57236 159.4654,-0.82098 l 1.61325,316.83159 c -0.45554,33.9887 34.4514,47.5781 62.174,36.069 C 1036.0627,955.37123 1075.6579,815.28822 1076.2259,685.51209 1076.8917,533.3767 948.08583,331.04047 712.96468,324.06754 c -227.64816,-6.7513 -379.3389,176.58774 -388.78417,356.26448 -8.94425,170.14585 83.51264,298.53572 232.93256,368.59418 z"
       id="path945"
       sodipodi:nodetypes="ccssccsssc" />
    <path
       style="fill:none;stroke:#eceff4;stroke-width:70;stroke-linecap:butt;stroke-linejoin:miter;stroke-miterlimit:4;stroke-dasharray:none;stroke-opacity:1"
       d="m 559.7079,1219.9655 c 114.48221,37.908 42.0834,181.4492 -37.15496,157.709 C 441.52178,1349.6119 12.02158,1227.8682 0.44641651,689.49972 5.8041973,319.42356 304.97454,4.5415288 695.92156,-0.09654717 1162.4517,-3.947764 1406.2937,410.68374 1402.2713,696.80206 1398.3669,974.52999 1247.7547,1264.5517 882.02034,1376.7091 784.80325,1397.2508 730.42607,1255.6038 839.20479,1220.2033 968.69149,1187.9406 1235.2191,1044.9435 1239.5429,692.28074 1243.1087,401.44459 998.27448,167.37151 714.68272,161.12856 453.6225,155.38162 166.50461,354.85066 160.86471,691.54869 155.51186,1011.11 423.72692,1195.7835 559.7079,1219.9655 Z"
       id="path947"
       sodipodi:nodetypes="ccccscccssc" />
  </g>
</svg>
