<?xml version="1.0" encoding="UTF-8" standalone="no"?>
<svg
   xmlns:dc="http://purl.org/dc/elements/1.1/"
   xmlns:cc="http://creativecommons.org/ns#"
   xmlns:rdf="http://www.w3.org/1999/02/22-rdf-syntax-ns#"
   xmlns:svg="http://www.w3.org/2000/svg"
   xmlns="http://www.w3.org/2000/svg"
   xmlns:sodipodi="http://sodipodi.sourceforge.net/DTD/sodipodi-0.dtd"
   xmlns:inkscape="http://www.inkscape.org/namespaces/inkscape"
   inkscape:version="1.0 (4035a4fb49, 2020-05-01)"
   sodipodi:docname="Shape.svg"
   id="svg1126"
   version="1.1"
   fill="none"
   viewBox="0 0 26.035584 26.000004"
   height="26.000004"
   width="26.035583">
  <metadata
     id="metadata1130">
    <rdf:RDF>
      <cc:Work
         rdf:about="">
        <dc:format>image/svg+xml</dc:format>
        <dc:type
           rdf:resource="http://purl.org/dc/dcmitype/StillImage" />
        <dc:title></dc:title>
      </cc:Work>
    </rdf:RDF>
  </metadata>
  <sodipodi:namedview
     inkscape:current-layer="svg1126"
     inkscape:window-maximized="0"
     inkscape:window-y="65"
     inkscape:window-x="1722"
     inkscape:cy="15.891247"
     inkscape:cx="13.502517"
     inkscape:zoom="10.532945"
     fit-margin-bottom="0"
     fit-margin-right="0"
     fit-margin-left="0"
     fit-margin-top="0"
     showgrid="false"
     id="namedview1128"
     inkscape:window-height="1322"
     inkscape:window-width="1690"
     inkscape:pageshadow="2"
     inkscape:pageopacity="0"
     guidetolerance="10"
     gridtolerance="10"
     objecttolerance="10"
     borderopacity="1"
     bordercolor="#666666"
     pagecolor="#ffffff" />
  <path
     style="fill:none;stroke:#eceff4;stroke-width:2;stroke-miterlimit:4;stroke-dasharray:none;stroke-opacity:1"
     id="path1103"
     fill="url(#paint0_linear)"
     d="m 1.0000585,9.0000017 c 0,2.1217003 0.8428548,4.1566003 2.3431418,5.6569003 1.50029,1.5002 3.53512,2.3431 5.65686,2.3431 v -7.9999003 0 c 0,-1.05057 -0.20692,-2.09086 -0.60896,-3.06147 -0.40204,-0.9706 -0.99131,-1.85251 -1.73418,-2.59538 -0.74287,-0.74287 -1.62478,-1.33215 -2.59539,-1.734185 -0.9706,-0.4020381 -2.01089,-0.608964 -3.0614651,-0.608964 z"
     clip-rule="evenodd"
     fill-rule="evenodd" />
  <path
     style="fill:none;stroke:#eceff4;stroke-width:2;stroke-miterlimit:4;stroke-dasharray:none;stroke-opacity:1"
     id="path1105"
     fill="url(#paint1_linear)"
     d="m 17,9.0000017 c 1.5823,0 3.129,0.4692 4.4446,1.3482503 1.3156,0.87905 2.3409,2.12845 2.9464,3.59025 0.6055,1.4618 0.764,3.0704 0.4553,4.6222 -0.3087,1.5519 -1.0706,2.9773 -2.1894,4.0962 -1.1189,1.1188 -2.5443,1.8807 -4.0962,2.1894 -1.5518,0.3087 -3.1604,0.1502 -4.6222,-0.4553 -1.4618,-0.6055 -2.7112,-1.6308 -3.59025,-2.9464 -0.8790497,-1.3156 -1.3482497,-2.8623 -1.3482497,-4.4446 H 17 Z" />
  <path
     style="fill:none;stroke:#eceff4;stroke-width:2;stroke-miterlimit:4;stroke-dasharray:none;stroke-opacity:1"
     id="path1107"
     fill="url(#paint2_linear)"
     d="m 9.0000003,21.000002 c 0,2.2091 -1.79086,4 -4,4 -2.20914,0 -4.00000049,-1.7909 -4.0000003,-4 2e-7,-2.2091 1.7908603,-4 4.0000003,-4 1.06521,0 4,0 4,0 0,0 0,2.8561 0,4 z" />
  <defs
     id="defs1124">
    <linearGradient
       gradientUnits="userSpaceOnUse"
       y2="1.23978e-05"
       x2="5.5000401"
       y1="16"
       x1="5.5000401"
       id="paint0_linear">
      <stop
         id="stop1109"
         stop-color="#003CB4" />
      <stop
         id="stop1111"
         stop-color="#6498FF"
         offset="1" />
    </linearGradient>
    <linearGradient
       gradientUnits="userSpaceOnUse"
       y2="15.2938"
       x2="12.1534"
       y1="25"
       x1="28.25"
       id="paint1_linear">
      <stop
         id="stop1114"
         stop-color="#4D29C0" />
      <stop
         id="stop1116"
         stop-color="#9D80FF"
         offset="1" />
    </linearGradient>
    <linearGradient
       gradientUnits="userSpaceOnUse"
       y2="24"
       x2="3.99441"
       y1="16"
       x1="3.99441"
       id="paint2_linear">
      <stop
         id="stop1119"
         stop-color="white" />
      <stop
         id="stop1121"
         stop-color="#E3DDFF"
         offset="1" />
    </linearGradient>
  </defs>
  <path
     fill-rule="evenodd"
     clip-rule="evenodd"
     d="M 17.031793,1.0000628 C 14.91011,0.99165734 12.871887,1.826444 11.365655,3.3207756 9.8595233,4.8151105 9.0085691,6.8465852 9.0001635,8.9683087 L 17,9.0000017 v 0 c 1.050562,0.00416 2.091663,-0.1986351 3.063858,-0.5968267 0.972185,-0.3981916 1.856423,-0.9839632 2.60223,-1.7238844 0.745807,-0.7399212 1.338576,-1.6194898 1.744454,-2.5884994 0.40588,-0.9689997 0.616925,-2.0084617 0.621087,-3.0590287 z"
     fill="url(#paint0_linear)"
     id="path1103-5"
     style="fill:none;stroke:#eceff4;stroke-width:2;stroke-miterlimit:4;stroke-dasharray:none;stroke-opacity:1" />
</svg>
