<?xml version="1.0" encoding="UTF-8" standalone="no"?>
<svg
   xmlns:dc="http://purl.org/dc/elements/1.1/"
   xmlns:cc="http://creativecommons.org/ns#"
   xmlns:rdf="http://www.w3.org/1999/02/22-rdf-syntax-ns#"
   xmlns:svg="http://www.w3.org/2000/svg"
   xmlns="http://www.w3.org/2000/svg"
   xmlns:sodipodi="http://sodipodi.sourceforge.net/DTD/sodipodi-0.dtd"
   xmlns:inkscape="http://www.inkscape.org/namespaces/inkscape"
   inkscape:version="1.0 (4035a4fb49, 2020-05-01)"
   sodipodi:docname="sky.svg"
   viewBox="0 0 1052.8893 645.56512"
   height="645.56512"
   width="1052.8893"
   id="svg2"
   version="1.1">
  <metadata
     id="metadata8">
    <rdf:RDF>
      <cc:Work
         rdf:about="">
        <dc:format>image/svg+xml</dc:format>
        <dc:type
           rdf:resource="http://purl.org/dc/dcmitype/StillImage" />
        <dc:title></dc:title>
      </cc:Work>
    </rdf:RDF>
  </metadata>
  <defs
     id="defs6" />
  <sodipodi:namedview
     inkscape:current-layer="g10"
     inkscape:window-maximized="0"
     inkscape:window-y="65"
     inkscape:window-x="1716"
     inkscape:cy="196.28077"
     inkscape:cx="588.09402"
     inkscape:zoom="0.80585314"
     fit-margin-bottom="0"
     fit-margin-right="0"
     fit-margin-left="0"
     fit-margin-top="0"
     showgrid="false"
     id="namedview4"
     inkscape:window-height="1322"
     inkscape:window-width="1696"
     inkscape:pageshadow="2"
     inkscape:pageopacity="0"
     guidetolerance="10"
     gridtolerance="10"
     objecttolerance="10"
     borderopacity="1"
     bordercolor="#666666"
     pagecolor="#ffffff" />
  <g
     transform="translate(12.967773,11.704542)"
     id="g10"
     inkscape:label="Image"
     inkscape:groupmode="layer">
    <path
       sodipodi:nodetypes="ccscssccscscc"
       id="path837"
       d="m 288.97612,132.41514 c 3.56362,17.92692 15.80011,96.42827 -73.43739,85.57568 C 81.008396,197.86081 74.80895,247.32499 124.18044,256.26 c 33.23193,6.01416 64.23979,11.98861 103.72077,20.61688 76.14163,29.03213 84.57286,65.53234 84.37654,103.00471 -0.21494,41.02573 -16.8972,117.41811 -157.91248,115.86054 -57.682252,-0.63712 -108.576259,-2.68286 -141.080585,-6.99728 -7.6275029,-30.90831 -6.9098893,-93.40449 60.297213,-87.28346 20.279559,2.33924 65.400322,5.11877 101.005042,5.17637 44.19018,0.0715 64.54452,-41.20782 -7.31392,-50.94881 C 108.17104,346.53282 71.182429,338.19235 46.363293,322.01576 -1.7961434,290.62645 -0.48871533,248.00504 -0.46049799,240.71411 8.2210964,90.167353 199.60683,129.11842 288.97612,132.41514 Z"
       style="fill:none;stroke:#eceff4;stroke-width:25;stroke-linecap:butt;stroke-linejoin:miter;stroke-miterlimit:4;stroke-dasharray:none;stroke-opacity:1" />
    <path
       sodipodi:nodetypes="ccccc"
       id="path839"
       d="m 348.24416,494.52737 c 24.84678,1.98857 98.09991,12.45614 98.37998,-46.15009 L 446.81363,2.5418675 C 418.21539,-1.3155111 348.67871,-3.6939387 348.44286,58.166948 Z"
       style="fill:none;stroke:#eceff4;stroke-width:25;stroke-linecap:butt;stroke-linejoin:miter;stroke-miterlimit:4;stroke-dasharray:none;stroke-opacity:1" />
    <path
       sodipodi:nodetypes="cccccccccccccc"
       id="path841"
       d="m 690.9533,485.88548 -117.23048,-177.10644 82.44281,-87.8903 137.46744,215.22058 -83.7302,175.16988 c 49.67236,20.31599 95.40922,7.91945 109.31222,-19.58603 L 1023.9721,136.51511 C 995.34441,119.27346 929.95742,123.5862 912.83184,163.39576 L 839.70218,333.86313 714.2445,130.382 c -46.46063,-16.88619 -97.21376,0.35478 -118.48515,20.79525 L 457.61033,301.9634 557.97216,459.55789 c 30.84177,47.32747 98.10844,44.56989 132.98114,26.32759 z"
       style="fill:none;stroke:#eceff4;stroke-width:25;stroke-linecap:butt;stroke-linejoin:miter;stroke-miterlimit:4;stroke-dasharray:none;stroke-opacity:1" />
  </g>
</svg>
