<?xml version="1.0" encoding="UTF-8" standalone="no"?>
<svg
   xmlns:dc="http://purl.org/dc/elements/1.1/"
   xmlns:cc="http://creativecommons.org/ns#"
   xmlns:rdf="http://www.w3.org/1999/02/22-rdf-syntax-ns#"
   xmlns:svg="http://www.w3.org/2000/svg"
   xmlns="http://www.w3.org/2000/svg"
   xmlns:sodipodi="http://sodipodi.sourceforge.net/DTD/sodipodi-0.dtd"
   xmlns:inkscape="http://www.inkscape.org/namespaces/inkscape"
   inkscape:version="1.0 (4035a4fb49, 2020-05-01)"
   sodipodi:docname="02n.svg"
   id="svg917"
   version="1.1"
   data-reactroot=""
   fill="none"
   viewBox="0 0 27.989341 21.120729"
   height="84.482918"
   width="111.95737">
  <metadata
     id="metadata923">
    <rdf:RDF>
      <cc:Work
         rdf:about="">
        <dc:format>image/svg+xml</dc:format>
        <dc:type
           rdf:resource="http://purl.org/dc/dcmitype/StillImage" />
        <dc:title></dc:title>
      </cc:Work>
    </rdf:RDF>
  </metadata>
  <defs
     id="defs921" />
  <sodipodi:namedview
     fit-margin-bottom="0"
     fit-margin-right="0"
     fit-margin-left="0"
     fit-margin-top="0"
     inkscape:snap-center="true"
     inkscape:current-layer="svg917"
     inkscape:window-maximized="0"
     inkscape:window-y="65"
     inkscape:window-x="1720"
     inkscape:cy="53.286042"
     inkscape:cx="67.789986"
     inkscape:zoom="3.2880465"
     showgrid="false"
     id="namedview919"
     inkscape:window-height="1322"
     inkscape:window-width="1692"
     inkscape:pageshadow="2"
     inkscape:pageopacity="0"
     guidetolerance="10"
     gridtolerance="10"
     objecttolerance="10"
     borderopacity="1"
     bordercolor="#666666"
     pagecolor="#ffffff" />
  <path
     d="m 16.556798,5.0163496 c -0.81936,0 -1.608444,0.127432 -2.350097,0.362305 a 9.9096808,9.3015398 0 0 1 4.082031,7.5229484 9.9096808,9.3015398 0 0 1 -3.866211,7.371581 c 0.678502,0.193304 1.39376,0.298828 2.134277,0.298828 4.295512,0 7.777833,-3.482321 7.777833,-7.777831 0,-4.2955504 -3.482321,-7.7778314 -7.777833,-7.7778314 z"
     style="fill:#5381ac;fill-opacity:1;stroke:#ebcb8b;stroke-width:1.9445;stroke-linejoin:round;stroke-miterlimit:10;stroke-dasharray:none;stroke-opacity:0"
     id="path1048-2" />
  <path
     id="path1048"
     style="stroke:#81a1c1;stroke-width:1.9445;stroke-linejoin:round;stroke-miterlimit:10;stroke-dasharray:none;stroke-opacity:1"
     d="m 13.88441,3.9482176 c -0.81936,0 -1.608444,0.127432 -2.350097,0.362305 a 9.909681,9.3015398 0 0 1 4.082031,7.5229494 9.909681,9.3015398 0 0 1 -3.866211,7.371581 c 0.678502,0.193304 1.39376,0.298828 2.134277,0.298828 4.295512,0 7.777832,-3.482321 7.777832,-7.777831 0,-4.2955504 -3.48232,-7.7778324 -7.777832,-7.7778324 z" />
  <path
     stroke-linejoin="round"
     stroke-linecap="round"
     stroke-miterlimit="10"
     stroke-width="0"
     stroke="#eceff4"
     fill="#d8dee9"
     d="m 19.270666,12.794181 c -0.8,-2.099999 -2.900001,-3.7000001 -5.400001,-3.7000001 -3.199999,0 -5.7999991,2.5000011 -5.7999991,5.7000001 0,0.1 0,0.2 0,0.3 -0.5,-0.3 -1,-0.4 -1.6,-0.4 -1.8,-0.1 -3.3,1.4 -3.3,3.2 0,1.8 1.5,3.2 3.3,3.2 H 19.070666 c 2.3,0 4.1,-2 4.1,-4.199999 0,-2.200001 -1.7,-3.900001 -3.9,-4.100001 z"
     id="path1703" />
  <path
     stroke-linejoin="round"
     stroke-linecap="round"
     stroke-miterlimit="10"
     stroke-width="2"
     stroke="#eceff4"
     fill="none"
     d="m 17.270665,10.794182 c -0.8,-2.1000011 -2.9,-3.7000001 -5.4,-3.7000001 -3.1999992,0 -5.7999993,2.499999 -5.7999993,5.6999991 0,0.1 0,0.2 0,0.3 -0.5,-0.3 -1,-0.4 -1.6,-0.4 -1.7999999,-0.1 -3.2999999,1.4 -3.2999999,3.2 0,1.8 1.5,3.2 3.2999999,3.2 H 17.070665 c 2.300001,0 4.100001,-1.999999 4.100001,-4.2 0,-2.2 -1.7,-3.899999 -3.900001,-4.099999 z"
     id="path1705" />
</svg>
