<?xml version="1.0" encoding="UTF-8" standalone="no"?>
<svg
   xmlns:dc="http://purl.org/dc/elements/1.1/"
   xmlns:cc="http://creativecommons.org/ns#"
   xmlns:rdf="http://www.w3.org/1999/02/22-rdf-syntax-ns#"
   xmlns:svg="http://www.w3.org/2000/svg"
   xmlns="http://www.w3.org/2000/svg"
   xmlns:sodipodi="http://sodipodi.sourceforge.net/DTD/sodipodi-0.dtd"
   xmlns:inkscape="http://www.inkscape.org/namespaces/inkscape"
   inkscape:version="1.0 (4035a4fb49, 2020-05-01)"
   sodipodi:docname="04d.svg"
   id="svg3079"
   version="1.1"
   data-reactroot=""
   fill="none"
   viewBox="0 0 24 24"
   height="96"
   width="96">
  <metadata
     id="metadata3085">
    <rdf:RDF>
      <cc:Work
         rdf:about="">
        <dc:format>image/svg+xml</dc:format>
        <dc:type
           rdf:resource="http://purl.org/dc/dcmitype/StillImage" />
        <dc:title></dc:title>
      </cc:Work>
    </rdf:RDF>
  </metadata>
  <defs
     id="defs3083" />
  <sodipodi:namedview
     inkscape:current-layer="svg3079"
     inkscape:window-maximized="0"
     inkscape:window-y="747"
     inkscape:window-x="1720"
     inkscape:cy="47.296623"
     inkscape:cx="49.741992"
     inkscape:zoom="3.7239583"
     showgrid="false"
     id="namedview3081"
     inkscape:window-height="639"
     inkscape:window-width="1692"
     inkscape:pageshadow="2"
     inkscape:pageopacity="0"
     guidetolerance="10"
     gridtolerance="10"
     objecttolerance="10"
     borderopacity="1"
     bordercolor="#666666"
     pagecolor="#ffffff" />
  <path
     style="stroke:#4c566a;stroke-opacity:1;fill:#4c566a;fill-opacity:1"
     id="path3075"
     transform="translate(2,2)"
     d="M18.1 9.7C17.3 7.6 15.2 6 12.7 6C9.5 6 6.9 8.5 6.9 11.7C6.9 11.8 6.9 11.9 6.9 12C6.4 11.7 5.9 11.6 5.3 11.6C3.5 11.5 2 13 2 14.8C2 16.6 3.5 18 5.3 18H17.9C20.2 18 22 16 22 13.8C22 11.6 20.3 9.9 18.1 9.7Z"
     fill="#d8dee9"
     stroke="#eceff4"
     stroke-width="0"
     stroke-miterlimit="10"
     stroke-linecap="round"
     stroke-linejoin="round" />
  <path
     style="stroke:#d8dee9;stroke-opacity:1"
     id="path3077"
     d="M18.1 9.7C17.3 7.6 15.2 6 12.7 6C9.5 6 6.9 8.5 6.9 11.7C6.9 11.8 6.9 11.9 6.9 12C6.4 11.7 5.9 11.6 5.3 11.6C3.5 11.5 2 13 2 14.8C2 16.6 3.5 18 5.3 18H17.9C20.2 18 22 16 22 13.8C22 11.6 20.3 9.9 18.1 9.7Z"
     fill="none"
     stroke="#eceff4"
     stroke-width="2"
     stroke-miterlimit="10"
     stroke-linecap="round"
     stroke-linejoin="round" />
</svg>
