<?xml version="1.0" encoding="UTF-8" standalone="no"?>
<svg
   xmlns:dc="http://purl.org/dc/elements/1.1/"
   xmlns:cc="http://creativecommons.org/ns#"
   xmlns:rdf="http://www.w3.org/1999/02/22-rdf-syntax-ns#"
   xmlns:svg="http://www.w3.org/2000/svg"
   xmlns="http://www.w3.org/2000/svg"
   xmlns:sodipodi="http://sodipodi.sourceforge.net/DTD/sodipodi-0.dtd"
   xmlns:inkscape="http://www.inkscape.org/namespaces/inkscape"
   inkscape:version="1.0 (4035a4fb49, 2020-05-01)"
   sodipodi:docname="cloud-lightning-(96x96)@1x.svg"
   id="svg10"
   version="1.1"
   data-reactroot=""
   fill="none"
   viewBox="0 0 24 24"
   height="96"
   width="96">
  <metadata
     id="metadata16">
    <rdf:RDF>
      <cc:Work
         rdf:about="">
        <dc:format>image/svg+xml</dc:format>
        <dc:type
           rdf:resource="http://purl.org/dc/dcmitype/StillImage" />
      </cc:Work>
    </rdf:RDF>
  </metadata>
  <defs
     id="defs14" />
  <sodipodi:namedview
     inkscape:current-layer="svg10"
     inkscape:window-maximized="0"
     inkscape:window-y="975"
     inkscape:window-x="1720"
     inkscape:cy="37.258741"
     inkscape:cx="48"
     inkscape:zoom="7.4479167"
     showgrid="false"
     id="namedview12"
     inkscape:window-height="412"
     inkscape:window-width="1692"
     inkscape:pageshadow="2"
     inkscape:pageopacity="0"
     guidetolerance="10"
     gridtolerance="10"
     objecttolerance="10"
     borderopacity="1"
     bordercolor="#666666"
     pagecolor="#ffffff" />
  <path
     id="path2"
     transform="translate(2,2)"
     d="M18.1 5.7C17.3 3.6 15.2 2 12.7 2C9.5 2 6.9 4.5 6.9 7.7C6.9 7.8 6.9 7.9 6.9 8C6.4 7.7 5.9 7.6 5.3 7.6C3.5 7.5 2 9 2 10.8C2 12.6 3.5 14 5.3 14H17.9C20.2 14 22 12 22 9.8C22 7.6 20.3 5.9 18.1 5.7Z"
     fill="#d8dee9"
     stroke="#eceff4"
     stroke-width="0"
     stroke-miterlimit="10"
     stroke-linecap="round"
     stroke-linejoin="round" />
  <path
     id="path4"
     d="M18.1 5.7C17.3 3.6 15.2 2 12.7 2C9.5 2 6.9 4.5 6.9 7.7C6.9 7.8 6.9 7.9 6.9 8C6.4 7.7 5.9 7.6 5.3 7.6C3.5 7.5 2 9 2 10.8C2 12.6 3.5 14 5.3 14H17.9C20.2 14 22 12 22 9.8C22 7.6 20.3 5.9 18.1 5.7Z"
     fill="none"
     stroke="#eceff4"
     stroke-width="2"
     stroke-miterlimit="10"
     stroke-linecap="round"
     stroke-linejoin="round" />
  <path
     style="stroke:#ebcb8b;stroke-opacity:1"
     id="path6"
     d="M8.66667 17L7 19.5H10.3333L8.66667 22"
     stroke="#eceff4"
     stroke-width="2"
     stroke-miterlimit="10"
     stroke-linecap="round"
     stroke-linejoin="round" />
  <path
     style="stroke:#ebcb8b;stroke-opacity:1"
     id="path8"
     d="M15.6667 17L14 19.5H17.3333L15.6667 22"
     stroke="#eceff4"
     stroke-width="2"
     stroke-miterlimit="10"
     stroke-linecap="round"
     stroke-linejoin="round" />
</svg>
