<svg width="96" height="96" viewBox="0 0 24 24" fill="none" xmlns="http://www.w3.org/2000/svg" data-reactroot="">
<path stroke-linejoin="round" stroke-linecap="round" stroke-miterlimit="10" stroke-width="0" stroke="#eceff4" fill="#d8dee9" d="M18.1 5.7C17.3 3.6 15.2 2 12.7 2C9.5 2 6.9 4.5 6.9 7.7C6.9 7.8 6.9 7.9 6.9 8C6.4 7.7 5.9 7.6 5.3 7.6C3.5 7.5 2 9 2 10.8C2 12.6 3.5 14 5.3 14H17.9C20.2 14 22 12 22 9.8C22 7.6 20.3 5.9 18.1 5.7Z" transform="translate(2,2)"></path><path stroke-linejoin="round" stroke-linecap="round" stroke-miterlimit="10" stroke-width="2" stroke="#eceff4" fill="none" d="M18.1 5.7C17.3 3.6 15.2 2 12.7 2C9.5 2 6.9 4.5 6.9 7.7C6.9 7.8 6.9 7.9 6.9 8C6.4 7.7 5.9 7.6 5.3 7.6C3.5 7.5 2 9 2 10.8C2 12.6 3.5 14 5.3 14H17.9C20.2 14 22 12 22 9.8C22 7.6 20.3 5.9 18.1 5.7Z"></path>
<path stroke-linejoin="round" stroke-linecap="round" stroke-miterlimit="10" stroke-width="2" stroke="#eceff4" d="M20 18H8"></path>
<path stroke-linejoin="round" stroke-linecap="round" stroke-miterlimit="10" stroke-width="2" stroke="#eceff4" d="M16 22H4"></path>
</svg>
